%TF.GenerationSoftware,KiCad,Pcbnew,10.0.4*%
%TF.CreationDate,2026-07-06T19:53:58-04:00*%
%TF.ProjectId,CARRITODWOFICIAL,43415252-4954-44f4-9457-4f4649434941,rev?*%
%TF.SameCoordinates,Original*%
%TF.FileFunction,Paste,Top*%
%TF.FilePolarity,Positive*%
%FSLAX46Y46*%
G04 Gerber Fmt 4.6, Leading zero omitted, Abs format (unit mm)*
G04 Created by KiCad (PCBNEW 10.0.4) date 2026-07-06 19:53:58*
%MOMM*%
%LPD*%
G01*
G04 APERTURE LIST*
G04 Aperture macros list*
%AMRoundRect*
0 Rectangle with rounded corners*
0 $1 Rounding radius*
0 $2 $3 $4 $5 $6 $7 $8 $9 X,Y pos of 4 corners*
0 Add a 4 corners polygon primitive as box body*
4,1,4,$2,$3,$4,$5,$6,$7,$8,$9,$2,$3,0*
0 Add four circle primitives for the rounded corners*
1,1,$1+$1,$2,$3*
1,1,$1+$1,$4,$5*
1,1,$1+$1,$6,$7*
1,1,$1+$1,$8,$9*
0 Add four rect primitives between the rounded corners*
20,1,$1+$1,$2,$3,$4,$5,0*
20,1,$1+$1,$4,$5,$6,$7,0*
20,1,$1+$1,$6,$7,$8,$9,0*
20,1,$1+$1,$8,$9,$2,$3,0*%
G04 Aperture macros list end*
%ADD10RoundRect,0.150000X0.150000X-0.825000X0.150000X0.825000X-0.150000X0.825000X-0.150000X-0.825000X0*%
%ADD11RoundRect,0.250000X0.625000X-0.400000X0.625000X0.400000X-0.625000X0.400000X-0.625000X-0.400000X0*%
%ADD12RoundRect,0.250000X0.400000X0.625000X-0.400000X0.625000X-0.400000X-0.625000X0.400000X-0.625000X0*%
%ADD13R,2.000000X0.640000*%
%ADD14RoundRect,0.250000X-0.400000X-0.625000X0.400000X-0.625000X0.400000X0.625000X-0.400000X0.625000X0*%
%ADD15RoundRect,0.250000X-0.625000X0.400000X-0.625000X-0.400000X0.625000X-0.400000X0.625000X0.400000X0*%
G04 APERTURE END LIST*
D10*
%TO.C,U9*%
X261095000Y-145475000D03*
X262365000Y-145475000D03*
X263635000Y-145475000D03*
X264905000Y-145475000D03*
X264905000Y-140525000D03*
X263635000Y-140525000D03*
X262365000Y-140525000D03*
X261095000Y-140525000D03*
%TD*%
D11*
%TO.C,R5*%
X178500000Y-170550000D03*
X178500000Y-167450000D03*
%TD*%
D12*
%TO.C,R1*%
X245550000Y-168500000D03*
X242450000Y-168500000D03*
%TD*%
D11*
%TO.C,R36*%
X258000000Y-152050000D03*
X258000000Y-148950000D03*
%TD*%
%TO.C,R29*%
X268500000Y-152050000D03*
X268500000Y-148950000D03*
%TD*%
D13*
%TO.C,U7*%
X226650000Y-182270000D03*
X226650000Y-179730000D03*
X220350000Y-179730000D03*
X220350000Y-182270000D03*
%TD*%
%TO.C,U2*%
X226650000Y-165770000D03*
X226650000Y-163230000D03*
X220350000Y-163230000D03*
X220350000Y-165770000D03*
%TD*%
D12*
%TO.C,R41*%
X232550000Y-194500000D03*
X229450000Y-194500000D03*
%TD*%
D14*
%TO.C,R27*%
X149450000Y-206000000D03*
X152550000Y-206000000D03*
%TD*%
D11*
%TO.C,R35*%
X261500000Y-152050000D03*
X261500000Y-148950000D03*
%TD*%
D15*
%TO.C,R20*%
X167500000Y-142450000D03*
X167500000Y-145550000D03*
%TD*%
D12*
%TO.C,R9*%
X245550000Y-178500000D03*
X242450000Y-178500000D03*
%TD*%
D14*
%TO.C,R25*%
X242450000Y-182000000D03*
X245550000Y-182000000D03*
%TD*%
%TO.C,R28*%
X149450000Y-202000000D03*
X152550000Y-202000000D03*
%TD*%
D12*
%TO.C,R37*%
X232550000Y-208500000D03*
X229450000Y-208500000D03*
%TD*%
D13*
%TO.C,U3*%
X226650000Y-160270000D03*
X226650000Y-157730000D03*
X220350000Y-157730000D03*
X220350000Y-160270000D03*
%TD*%
%TO.C,U5*%
X226650000Y-176770000D03*
X226650000Y-174230000D03*
X220350000Y-174230000D03*
X220350000Y-176770000D03*
%TD*%
D15*
%TO.C,R17*%
X165500000Y-148950000D03*
X165500000Y-152050000D03*
%TD*%
%TO.C,R34*%
X258000000Y-141450000D03*
X258000000Y-144550000D03*
%TD*%
D11*
%TO.C,R32*%
X265000000Y-152050000D03*
X265000000Y-148950000D03*
%TD*%
D12*
%TO.C,R11*%
X245550000Y-171500000D03*
X242450000Y-171500000D03*
%TD*%
D15*
%TO.C,R16*%
X167620000Y-132950000D03*
X167620000Y-136050000D03*
%TD*%
D12*
%TO.C,R24*%
X245550000Y-175000000D03*
X242450000Y-175000000D03*
%TD*%
%TO.C,R42*%
X232550000Y-191000000D03*
X229450000Y-191000000D03*
%TD*%
%TO.C,R10*%
X245550000Y-164500000D03*
X242450000Y-164500000D03*
%TD*%
D13*
%TO.C,U8*%
X226650000Y-187770000D03*
X226650000Y-185230000D03*
X220350000Y-185230000D03*
X220350000Y-187770000D03*
%TD*%
D14*
%TO.C,R26*%
X149450000Y-210000000D03*
X152550000Y-210000000D03*
%TD*%
%TO.C,R31*%
X170090000Y-191230000D03*
X173190000Y-191230000D03*
%TD*%
D15*
%TO.C,R18*%
X164000000Y-132950000D03*
X164000000Y-136050000D03*
%TD*%
D11*
%TO.C,R15*%
X153500000Y-144050000D03*
X153500000Y-140950000D03*
%TD*%
D12*
%TO.C,R39*%
X232550000Y-201500000D03*
X229450000Y-201500000D03*
%TD*%
D15*
%TO.C,R23*%
X171500000Y-132950000D03*
X171500000Y-136050000D03*
%TD*%
D12*
%TO.C,R38*%
X232550000Y-205000000D03*
X229450000Y-205000000D03*
%TD*%
D13*
%TO.C,U1*%
X226650000Y-171270000D03*
X226650000Y-168730000D03*
X220350000Y-168730000D03*
X220350000Y-171270000D03*
%TD*%
D14*
%TO.C,R33*%
X169950000Y-184770000D03*
X173050000Y-184770000D03*
%TD*%
D12*
%TO.C,R40*%
X232550000Y-198000000D03*
X229450000Y-198000000D03*
%TD*%
D14*
%TO.C,R30*%
X149450000Y-198000000D03*
X152550000Y-198000000D03*
%TD*%
M02*
