%TF.GenerationSoftware,KiCad,Pcbnew,10.0.4*%
%TF.CreationDate,2026-07-06T19:53:58-04:00*%
%TF.ProjectId,CARRITODWOFICIAL,43415252-4954-44f4-9457-4f4649434941,rev?*%
%TF.SameCoordinates,Original*%
%TF.FileFunction,Copper,L1,Top*%
%TF.FilePolarity,Positive*%
%FSLAX46Y46*%
G04 Gerber Fmt 4.6, Leading zero omitted, Abs format (unit mm)*
G04 Created by KiCad (PCBNEW 10.0.4) date 2026-07-06 19:53:58*
%MOMM*%
%LPD*%
G01*
G04 APERTURE LIST*
G04 Aperture macros list*
%AMRoundRect*
0 Rectangle with rounded corners*
0 $1 Rounding radius*
0 $2 $3 $4 $5 $6 $7 $8 $9 X,Y pos of 4 corners*
0 Add a 4 corners polygon primitive as box body*
4,1,4,$2,$3,$4,$5,$6,$7,$8,$9,$2,$3,0*
0 Add four circle primitives for the rounded corners*
1,1,$1+$1,$2,$3*
1,1,$1+$1,$4,$5*
1,1,$1+$1,$6,$7*
1,1,$1+$1,$8,$9*
0 Add four rect primitives between the rounded corners*
20,1,$1+$1,$2,$3,$4,$5,0*
20,1,$1+$1,$4,$5,$6,$7,0*
20,1,$1+$1,$6,$7,$8,$9,0*
20,1,$1+$1,$8,$9,$2,$3,0*%
G04 Aperture macros list end*
%TA.AperFunction,ComponentPad*%
%ADD10R,1.500000X1.050000*%
%TD*%
%TA.AperFunction,ComponentPad*%
%ADD11O,1.500000X1.050000*%
%TD*%
%TA.AperFunction,ComponentPad*%
%ADD12R,1.700000X1.700000*%
%TD*%
%TA.AperFunction,ComponentPad*%
%ADD13C,1.700000*%
%TD*%
%TA.AperFunction,ComponentPad*%
%ADD14C,1.600000*%
%TD*%
%TA.AperFunction,ComponentPad*%
%ADD15R,0.850000X0.850000*%
%TD*%
%TA.AperFunction,ComponentPad*%
%ADD16C,0.850000*%
%TD*%
%TA.AperFunction,SMDPad,CuDef*%
%ADD17RoundRect,0.150000X0.150000X-0.825000X0.150000X0.825000X-0.150000X0.825000X-0.150000X-0.825000X0*%
%TD*%
%TA.AperFunction,SMDPad,CuDef*%
%ADD18RoundRect,0.250000X0.625000X-0.400000X0.625000X0.400000X-0.625000X0.400000X-0.625000X-0.400000X0*%
%TD*%
%TA.AperFunction,SMDPad,CuDef*%
%ADD19RoundRect,0.250000X0.400000X0.625000X-0.400000X0.625000X-0.400000X-0.625000X0.400000X-0.625000X0*%
%TD*%
%TA.AperFunction,SMDPad,CuDef*%
%ADD20R,2.000000X0.640000*%
%TD*%
%TA.AperFunction,ComponentPad*%
%ADD21RoundRect,0.250000X-0.550000X0.550000X-0.550000X-0.550000X0.550000X-0.550000X0.550000X0.550000X0*%
%TD*%
%TA.AperFunction,ComponentPad*%
%ADD22R,1.905000X2.000000*%
%TD*%
%TA.AperFunction,ComponentPad*%
%ADD23O,1.905000X2.000000*%
%TD*%
%TA.AperFunction,SMDPad,CuDef*%
%ADD24RoundRect,0.250000X-0.400000X-0.625000X0.400000X-0.625000X0.400000X0.625000X-0.400000X0.625000X0*%
%TD*%
%TA.AperFunction,ComponentPad*%
%ADD25R,1.050000X1.500000*%
%TD*%
%TA.AperFunction,ComponentPad*%
%ADD26O,1.050000X1.500000*%
%TD*%
%TA.AperFunction,SMDPad,CuDef*%
%ADD27RoundRect,0.250000X-0.625000X0.400000X-0.625000X-0.400000X0.625000X-0.400000X0.625000X0.400000X0*%
%TD*%
%TA.AperFunction,ComponentPad*%
%ADD28R,2.000000X1.905000*%
%TD*%
%TA.AperFunction,ComponentPad*%
%ADD29O,2.000000X1.905000*%
%TD*%
%TA.AperFunction,ComponentPad*%
%ADD30RoundRect,0.250000X0.550000X-0.550000X0.550000X0.550000X-0.550000X0.550000X-0.550000X-0.550000X0*%
%TD*%
%TA.AperFunction,ComponentPad*%
%ADD31R,2.000000X2.000000*%
%TD*%
%TA.AperFunction,ComponentPad*%
%ADD32C,2.000000*%
%TD*%
%TA.AperFunction,ViaPad*%
%ADD33C,0.700000*%
%TD*%
%TA.AperFunction,Conductor*%
%ADD34C,0.700000*%
%TD*%
G04 APERTURE END LIST*
D10*
%TO.P,Q21,1,E_1*%
%TO.N,GND*%
X166500000Y-192500000D03*
D11*
%TO.P,Q21,2,B_2*%
%TO.N,Net-(Q21-B)*%
X166500000Y-191230000D03*
%TO.P,Q21,3,C_3*%
%TO.N,Net-(J15-Pin_2)*%
X166500000Y-189960000D03*
%TD*%
D12*
%TO.P,J23,1,Pin_1_1*%
%TO.N,ser3*%
X281000000Y-142540000D03*
D13*
%TO.P,J23,2,Pin_2_2*%
%TO.N,5Vsevo*%
X281000000Y-140000000D03*
%TO.P,J23,3,Pin_3_3*%
%TO.N,GND*%
X281000000Y-137460000D03*
%TD*%
D14*
%TO.P,R6,1*%
%TO.N,Net-(Q6-G)*%
X204310000Y-195500000D03*
%TO.P,R6,2*%
%TO.N,GND*%
X196690000Y-195500000D03*
%TD*%
D15*
%TO.P,J5,1,Pin_1_1*%
%TO.N,Net-(J4-Pin_1)*%
X257000000Y-207500000D03*
D16*
%TO.P,J5,2,Pin_2_2*%
%TO.N,Net-(J4-Pin_2)*%
X258000000Y-207500000D03*
%TD*%
D15*
%TO.P,J10,1,Pin_1_1*%
%TO.N,Net-(J10-Pin_1)*%
X254000000Y-135000000D03*
D16*
%TO.P,J10,2,Pin_2_2*%
%TO.N,Net-(J10-Pin_2)*%
X255000000Y-135000000D03*
%TD*%
D17*
%TO.P,U9,1*%
%TO.N,Net-(R36-Pad1)*%
X261095000Y-145475000D03*
%TO.P,U9,2,-_2*%
%TO.N,Net-(U9A--)*%
X262365000Y-145475000D03*
%TO.P,U9,3,+_3*%
%TO.N,Net-(J14-Pin_2)*%
X263635000Y-145475000D03*
%TO.P,U9,4,V-_4*%
%TO.N,Net-(Q23-E)*%
X264905000Y-145475000D03*
%TO.P,U9,5,+_5*%
%TO.N,Net-(J14-Pin_2)*%
X264905000Y-140525000D03*
%TO.P,U9,6,-_6*%
%TO.N,Net-(U9A--)*%
X263635000Y-140525000D03*
%TO.P,U9,7*%
%TO.N,Net-(R36-Pad1)*%
X262365000Y-140525000D03*
%TO.P,U9,8,V+_8*%
%TO.N,12V*%
X261095000Y-140525000D03*
%TD*%
D18*
%TO.P,R5,1*%
%TO.N,Net-(J6-Pin_2)*%
X178500000Y-170550000D03*
%TO.P,R5,2*%
%TO.N,Net-(Q4-G)*%
X178500000Y-167450000D03*
%TD*%
D19*
%TO.P,R1,1*%
%TO.N,DW1*%
X245550000Y-168500000D03*
%TO.P,R1,2*%
%TO.N,Net-(R1-Pad2)*%
X242450000Y-168500000D03*
%TD*%
D14*
%TO.P,R12,1*%
%TO.N,12V*%
X197150000Y-150500000D03*
%TO.P,R12,2*%
%TO.N,Net-(Q10-C)*%
X204770000Y-150500000D03*
%TD*%
D15*
%TO.P,J18,1,Pin_1_1*%
%TO.N,Net-(J17-Pin_1)*%
X223500000Y-204500000D03*
D16*
%TO.P,J18,2,Pin_2_2*%
%TO.N,Net-(J18-Pin_2)*%
X223500000Y-205500000D03*
%TD*%
D15*
%TO.P,J7,1,Pin_1_1*%
%TO.N,12V*%
X274500000Y-172000000D03*
D16*
%TO.P,J7,2,Pin_2_2*%
%TO.N,GND*%
X274500000Y-173000000D03*
%TD*%
D18*
%TO.P,R36,1*%
%TO.N,Net-(R36-Pad1)*%
X258000000Y-152050000D03*
%TO.P,R36,2*%
%TO.N,Net-(Q23-B)*%
X258000000Y-148950000D03*
%TD*%
%TO.P,R29,1*%
%TO.N,Net-(J13-Pin_2)*%
X268500000Y-152050000D03*
%TO.P,R29,2*%
%TO.N,Net-(Q23-E)*%
X268500000Y-148950000D03*
%TD*%
D20*
%TO.P,U7,1*%
%TO.N,Net-(R24-Pad2)*%
X226650000Y-182270000D03*
%TO.P,U7,2*%
%TO.N,GNDESP32*%
X226650000Y-179730000D03*
%TO.P,U7,3*%
%TO.N,Net-(Q12-G)*%
X220350000Y-179730000D03*
%TO.P,U7,4*%
%TO.N,12V*%
X220350000Y-182270000D03*
%TD*%
%TO.P,U2,1*%
%TO.N,Net-(R10-Pad2)*%
X226650000Y-165770000D03*
%TO.P,U2,2*%
%TO.N,GNDESP32*%
X226650000Y-163230000D03*
%TO.P,U2,3*%
%TO.N,Net-(Q3-G)*%
X220350000Y-163230000D03*
%TO.P,U2,4*%
%TO.N,12V*%
X220350000Y-165770000D03*
%TD*%
D21*
%TO.P,C4,1*%
%TO.N,Net-(Q18-G)*%
X147500000Y-148794900D03*
D14*
%TO.P,C4,2*%
%TO.N,GND*%
X147500000Y-151294900D03*
%TD*%
D22*
%TO.P,Q15,1,G_1*%
%TO.N,Net-(Q15-G)*%
X191040000Y-155050000D03*
D23*
%TO.P,Q15,2,D_2*%
%TO.N,Net-(J10-Pin_1)*%
X188500000Y-155050000D03*
%TO.P,Q15,3,S_3*%
%TO.N,12V*%
X185960000Y-155050000D03*
%TD*%
D19*
%TO.P,R41,1*%
%TO.N,12V*%
X232550000Y-194500000D03*
%TO.P,R41,2*%
%TO.N,Net-(J19-Pin_2)*%
X229450000Y-194500000D03*
%TD*%
D24*
%TO.P,R27,1*%
%TO.N,12V*%
X149450000Y-206000000D03*
%TO.P,R27,2*%
%TO.N,Net-(Q20-B)*%
X152550000Y-206000000D03*
%TD*%
D18*
%TO.P,R35,1*%
%TO.N,Net-(U9A--)*%
X261500000Y-152050000D03*
%TO.P,R35,2*%
%TO.N,Net-(Q23-E)*%
X261500000Y-148950000D03*
%TD*%
D15*
%TO.P,J20,1,Pin_1_1*%
%TO.N,Net-(J19-Pin_1)*%
X213500000Y-138000000D03*
D16*
%TO.P,J20,2,Pin_2_2*%
%TO.N,Net-(J20-Pin_2)*%
X213500000Y-139000000D03*
%TD*%
D25*
%TO.P,Q25,1,E_1*%
%TO.N,GND*%
X249730000Y-195360000D03*
D26*
%TO.P,Q25,2,B_2*%
%TO.N,Net-(Q25-B)*%
X251000000Y-195360000D03*
%TO.P,Q25,3,C_3*%
%TO.N,Net-(J19-Pin_1)*%
X252270000Y-195360000D03*
%TD*%
D27*
%TO.P,R20,1*%
%TO.N,Net-(J8-Pin_1)*%
X167500000Y-142450000D03*
%TO.P,R20,2*%
%TO.N,Net-(Q18-G)*%
X167500000Y-145550000D03*
%TD*%
D25*
%TO.P,Q19,1,E_1*%
%TO.N,GND*%
X167000000Y-208000000D03*
D26*
%TO.P,Q19,2,B_2*%
%TO.N,Net-(Q19-B)*%
X165730000Y-208000000D03*
%TO.P,Q19,3,C_3*%
%TO.N,Net-(Q19-C)*%
X164460000Y-208000000D03*
%TD*%
D19*
%TO.P,R9,1*%
%TO.N,DW5*%
X245550000Y-178500000D03*
%TO.P,R9,2*%
%TO.N,Net-(R9-Pad2)*%
X242450000Y-178500000D03*
%TD*%
D21*
%TO.P,C8,1*%
%TO.N,Net-(J19-Pin_1)*%
X239500000Y-194794900D03*
D14*
%TO.P,C8,2*%
%TO.N,Net-(Q24-B)*%
X239500000Y-197294900D03*
%TD*%
D24*
%TO.P,R25,1*%
%TO.N,Net-(R25-Pad1)*%
X242450000Y-182000000D03*
%TO.P,R25,2*%
%TO.N,DW6*%
X245550000Y-182000000D03*
%TD*%
D15*
%TO.P,J16,1,Pin_1_1*%
%TO.N,Net-(J15-Pin_1)*%
X271000000Y-139000000D03*
D16*
%TO.P,J16,2,Pin_2_2*%
%TO.N,Net-(J16-Pin_2)*%
X271000000Y-140000000D03*
%TD*%
D22*
%TO.P,Q16,1,G_1*%
%TO.N,Net-(Q16-G)*%
X185960000Y-141450000D03*
D23*
%TO.P,Q16,2,D_2*%
%TO.N,Net-(J10-Pin_1)*%
X188500000Y-141450000D03*
%TO.P,Q16,3,S_3*%
%TO.N,GND*%
X191040000Y-141450000D03*
%TD*%
D14*
%TO.P,R21,1*%
%TO.N,12V*%
X184690000Y-150500000D03*
%TO.P,R21,2*%
%TO.N,Net-(Q15-G)*%
X192310000Y-150500000D03*
%TD*%
D21*
%TO.P,C5,1*%
%TO.N,Net-(Q20-B)*%
X158230000Y-206360000D03*
D14*
%TO.P,C5,2*%
%TO.N,Net-(Q19-C)*%
X158230000Y-208860000D03*
%TD*%
D24*
%TO.P,R28,1*%
%TO.N,12V*%
X149450000Y-202000000D03*
%TO.P,R28,2*%
%TO.N,Net-(Q19-B)*%
X152550000Y-202000000D03*
%TD*%
D14*
%TO.P,R19,1*%
%TO.N,Net-(Q16-G)*%
X192310000Y-146000000D03*
%TO.P,R19,2*%
%TO.N,GND*%
X184690000Y-146000000D03*
%TD*%
D21*
%TO.P,C2,1*%
%TO.N,Net-(Q13-G)*%
X147500000Y-141794900D03*
D14*
%TO.P,C2,2*%
%TO.N,GND*%
X147500000Y-144294900D03*
%TD*%
D25*
%TO.P,Q24,1,E_1*%
%TO.N,GND*%
X252230000Y-205140000D03*
D26*
%TO.P,Q24,2,B_2*%
%TO.N,Net-(Q24-B)*%
X250960000Y-205140000D03*
%TO.P,Q24,3,C_3*%
%TO.N,Net-(J17-Pin_1)*%
X249690000Y-205140000D03*
%TD*%
D22*
%TO.P,Q2,1,G_1*%
%TO.N,Net-(Q1-C)*%
X185000000Y-186500000D03*
D23*
%TO.P,Q2,2,D_2*%
%TO.N,Net-(J4-Pin_2)*%
X187540000Y-186500000D03*
%TO.P,Q2,3,S_3*%
%TO.N,12V*%
X190080000Y-186500000D03*
%TD*%
D28*
%TO.P,Q14,1,G_1*%
%TO.N,Net-(Q14-G)*%
X166450000Y-164040000D03*
D29*
%TO.P,Q14,2,D_2*%
%TO.N,Net-(J11-Pin_1)*%
X166450000Y-161500000D03*
%TO.P,Q14,3,S_3*%
%TO.N,GND*%
X166450000Y-158960000D03*
%TD*%
D22*
%TO.P,Q6,1,G_1*%
%TO.N,Net-(Q6-G)*%
X203500000Y-200050000D03*
D23*
%TO.P,Q6,2,D_2*%
%TO.N,Net-(J4-Pin_1)*%
X200960000Y-200050000D03*
%TO.P,Q6,3,S_3*%
%TO.N,GND*%
X198420000Y-200050000D03*
%TD*%
D25*
%TO.P,Q20,1,E_1*%
%TO.N,GND*%
X166500000Y-199000000D03*
D26*
%TO.P,Q20,2,B_2*%
%TO.N,Net-(Q20-B)*%
X165230000Y-199000000D03*
%TO.P,Q20,3,C_3*%
%TO.N,Net-(J15-Pin_1)*%
X163960000Y-199000000D03*
%TD*%
D15*
%TO.P,J8,1,Pin_1_1*%
%TO.N,Net-(J8-Pin_1)*%
X237500000Y-211000000D03*
D16*
%TO.P,J8,2,Pin_2_2*%
%TO.N,Net-(J8-Pin_2)*%
X237500000Y-210000000D03*
%TD*%
D14*
%TO.P,R13,1*%
%TO.N,Net-(Q10-B)*%
X210460000Y-142950000D03*
%TO.P,R13,2*%
%TO.N,Net-(Q16-G)*%
X210460000Y-150570000D03*
%TD*%
D28*
%TO.P,U10,1,IN_1*%
%TO.N,12V*%
X282050000Y-191960000D03*
D29*
%TO.P,U10,2,GND_2*%
%TO.N,GND*%
X282050000Y-194500000D03*
%TO.P,U10,3,OUT_3*%
%TO.N,5Vsevo*%
X282050000Y-197040000D03*
%TD*%
D19*
%TO.P,R37,1*%
%TO.N,12V*%
X232550000Y-208500000D03*
%TO.P,R37,2*%
%TO.N,Net-(J17-Pin_2)*%
X229450000Y-208500000D03*
%TD*%
D15*
%TO.P,J17,1,Pin_1_1*%
%TO.N,Net-(J17-Pin_1)*%
X213500000Y-204500000D03*
D16*
%TO.P,J17,2,Pin_2_2*%
%TO.N,Net-(J17-Pin_2)*%
X213500000Y-205500000D03*
%TD*%
D12*
%TO.P,J25,1,Pin_1_1*%
%TO.N,unconnected-(J25-Pin_1-Pad1)*%
X267780000Y-186000000D03*
D13*
%TO.P,J25,2,Pin_2_2*%
%TO.N,unconnected-(J25-Pin_2-Pad2)*%
X265240000Y-186000000D03*
%TO.P,J25,3,Pin_3_3*%
%TO.N,unconnected-(J25-Pin_3-Pad3)*%
X262700000Y-186000000D03*
%TO.P,J25,4,Pin_4_4*%
%TO.N,unconnected-(J25-Pin_4-Pad4)*%
X260160000Y-186000000D03*
%TO.P,J25,5,Pin_5_5*%
%TO.N,unconnected-(J25-Pin_5-Pad5)*%
X257620000Y-186000000D03*
%TO.P,J25,6,Pin_6_6*%
%TO.N,unconnected-(J25-Pin_6-Pad6)*%
X255080000Y-186000000D03*
%TO.P,J25,7,Pin_7_7*%
%TO.N,unconnected-(J25-Pin_7-Pad7)*%
X252540000Y-186000000D03*
%TO.P,J25,8,Pin_8_8*%
%TO.N,unconnected-(J25-Pin_8-Pad8)*%
X250000000Y-186000000D03*
%TO.P,J25,9,Pin_9_9*%
%TO.N,unconnected-(J25-Pin_9-Pad9)*%
X247460000Y-186000000D03*
%TO.P,J25,10,Pin_10_10*%
%TO.N,unconnected-(J25-Pin_10-Pad10)*%
X244920000Y-186000000D03*
%TO.P,J25,11,Pin_11_11*%
%TO.N,DW8*%
X242380000Y-186000000D03*
%TO.P,J25,12,Pin_12_12*%
%TO.N,unconnected-(J25-Pin_12-Pad12)*%
X239840000Y-186000000D03*
%TO.P,J25,13,Pin_13_13*%
%TO.N,DW7*%
X237300000Y-186000000D03*
%TO.P,J25,14,Pin_14_14*%
%TO.N,GND*%
X234760000Y-186000000D03*
%TO.P,J25,15,Pin_15_15*%
%TO.N,unconnected-(J25-Pin_15-Pad15)*%
X232220000Y-186000000D03*
%TD*%
D15*
%TO.P,J6,1,Pin_1_1*%
%TO.N,Net-(J6-Pin_1)*%
X264500000Y-198000000D03*
D16*
%TO.P,J6,2,Pin_2_2*%
%TO.N,Net-(J6-Pin_2)*%
X264500000Y-199000000D03*
%TD*%
D30*
%TO.P,C7,1*%
%TO.N,Net-(J17-Pin_1)*%
X239500000Y-205410200D03*
D14*
%TO.P,C7,2*%
%TO.N,Net-(Q25-B)*%
X239500000Y-202910200D03*
%TD*%
D15*
%TO.P,J13,1,Pin_1_1*%
%TO.N,12V*%
X283000000Y-172000000D03*
D16*
%TO.P,J13,2,Pin_2_2*%
%TO.N,Net-(J13-Pin_2)*%
X283000000Y-173000000D03*
%TD*%
D20*
%TO.P,U3,1*%
%TO.N,Net-(R9-Pad2)*%
X226650000Y-160270000D03*
%TO.P,U3,2*%
%TO.N,GNDESP32*%
X226650000Y-157730000D03*
%TO.P,U3,3*%
%TO.N,Net-(J6-Pin_1)*%
X220350000Y-157730000D03*
%TO.P,U3,4*%
%TO.N,5VAMP*%
X220350000Y-160270000D03*
%TD*%
D28*
%TO.P,Q7,1,G_1*%
%TO.N,Net-(Q4-G)*%
X196550000Y-167960000D03*
D29*
%TO.P,Q7,2,D_2*%
%TO.N,Net-(J6-Pin_2)*%
X196550000Y-170500000D03*
%TO.P,Q7,3,S_3*%
%TO.N,GND*%
X196550000Y-173040000D03*
%TD*%
D14*
%TO.P,R22,1*%
%TO.N,Net-(Q17-B)*%
X178960000Y-150260000D03*
%TO.P,R22,2*%
%TO.N,Net-(Q12-G)*%
X178960000Y-142640000D03*
%TD*%
D15*
%TO.P,J12,1,Pin_1_1*%
%TO.N,Net-(J12-Pin_1)*%
X247500000Y-210000000D03*
D16*
%TO.P,J12,2,Pin_2_2*%
%TO.N,Net-(J12-Pin_2)*%
X247500000Y-211000000D03*
%TD*%
D25*
%TO.P,Q1,1,E_1*%
%TO.N,GND*%
X176730000Y-185860000D03*
D26*
%TO.P,Q1,2,B_2*%
%TO.N,Net-(Q1-B)*%
X178000000Y-185860000D03*
%TO.P,Q1,3,C_3*%
%TO.N,Net-(Q1-C)*%
X179270000Y-185860000D03*
%TD*%
D15*
%TO.P,J15,1,Pin_1_1*%
%TO.N,Net-(J15-Pin_1)*%
X269000000Y-207500000D03*
D16*
%TO.P,J15,2,Pin_2_2*%
%TO.N,Net-(J15-Pin_2)*%
X269000000Y-208500000D03*
%TD*%
D28*
%TO.P,Q13,1,G_1*%
%TO.N,Net-(Q13-G)*%
X159000000Y-141500000D03*
D29*
%TO.P,Q13,2,D_2*%
%TO.N,Net-(J8-Pin_1)*%
X159000000Y-144040000D03*
%TO.P,Q13,3,S_3*%
%TO.N,GND*%
X159000000Y-146580000D03*
%TD*%
D20*
%TO.P,U5,1*%
%TO.N,Net-(R11-Pad2)*%
X226650000Y-176770000D03*
%TO.P,U5,2*%
%TO.N,GNDESP32*%
X226650000Y-174230000D03*
%TO.P,U5,3*%
%TO.N,Net-(Q16-G)*%
X220350000Y-174230000D03*
%TO.P,U5,4*%
%TO.N,12V*%
X220350000Y-176770000D03*
%TD*%
D27*
%TO.P,R17,1*%
%TO.N,Net-(J12-Pin_1)*%
X165500000Y-148950000D03*
%TO.P,R17,2*%
%TO.N,Net-(Q14-G)*%
X165500000Y-152050000D03*
%TD*%
%TO.P,R34,1*%
%TO.N,12V*%
X258000000Y-141450000D03*
%TO.P,R34,2*%
%TO.N,Net-(U9A--)*%
X258000000Y-144550000D03*
%TD*%
D28*
%TO.P,Q18,1,G_1*%
%TO.N,Net-(Q18-G)*%
X172050000Y-144460000D03*
D29*
%TO.P,Q18,2,D_2*%
%TO.N,Net-(J12-Pin_1)*%
X172050000Y-147000000D03*
%TO.P,Q18,3,S_3*%
%TO.N,GND*%
X172050000Y-149540000D03*
%TD*%
D18*
%TO.P,R32,1*%
%TO.N,Net-(J14-Pin_2)*%
X265000000Y-152050000D03*
%TO.P,R32,2*%
%TO.N,Net-(Q23-E)*%
X265000000Y-148950000D03*
%TD*%
D19*
%TO.P,R11,1*%
%TO.N,DW3*%
X245550000Y-171500000D03*
%TO.P,R11,2*%
%TO.N,Net-(R11-Pad2)*%
X242450000Y-171500000D03*
%TD*%
D27*
%TO.P,R16,1*%
%TO.N,12V*%
X167620000Y-132950000D03*
%TO.P,R16,2*%
%TO.N,Net-(J8-Pin_2)*%
X167620000Y-136050000D03*
%TD*%
D19*
%TO.P,R24,1*%
%TO.N,DW4*%
X245550000Y-175000000D03*
%TO.P,R24,2*%
%TO.N,Net-(R24-Pad2)*%
X242450000Y-175000000D03*
%TD*%
D14*
%TO.P,R8,1*%
%TO.N,Net-(Q8-B)*%
X210500000Y-191190000D03*
%TO.P,R8,2*%
%TO.N,Net-(Q3-G)*%
X210500000Y-198810000D03*
%TD*%
%TO.P,R14,1*%
%TO.N,Net-(Q12-G)*%
X197150000Y-146000000D03*
%TO.P,R14,2*%
%TO.N,GND*%
X204770000Y-146000000D03*
%TD*%
D22*
%TO.P,Q12,1,G_1*%
%TO.N,Net-(Q12-G)*%
X198460000Y-141450000D03*
D23*
%TO.P,Q12,2,D_2*%
%TO.N,Net-(J10-Pin_2)*%
X201000000Y-141450000D03*
%TO.P,Q12,3,S_3*%
%TO.N,GND*%
X203540000Y-141450000D03*
%TD*%
D28*
%TO.P,Q9,1,G_1*%
%TO.N,Net-(Q4-G)*%
X209050000Y-167960000D03*
D29*
%TO.P,Q9,2,D_2*%
%TO.N,Net-(J6-Pin_2)*%
X209050000Y-170500000D03*
%TO.P,Q9,3,S_3*%
%TO.N,GND*%
X209050000Y-173040000D03*
%TD*%
D25*
%TO.P,Q10,1,E_1*%
%TO.N,GND*%
X211730000Y-155590000D03*
D26*
%TO.P,Q10,2,B_2*%
%TO.N,Net-(Q10-B)*%
X210460000Y-155590000D03*
%TO.P,Q10,3,C_3*%
%TO.N,Net-(Q10-C)*%
X209190000Y-155590000D03*
%TD*%
D19*
%TO.P,R42,1*%
%TO.N,12V*%
X232550000Y-191000000D03*
%TO.P,R42,2*%
%TO.N,Net-(J20-Pin_2)*%
X229450000Y-191000000D03*
%TD*%
D14*
%TO.P,R2,1*%
%TO.N,12V*%
X191310000Y-191000000D03*
%TO.P,R2,2*%
%TO.N,Net-(Q1-C)*%
X183690000Y-191000000D03*
%TD*%
D19*
%TO.P,R10,1*%
%TO.N,DW2*%
X245550000Y-164500000D03*
%TO.P,R10,2*%
%TO.N,Net-(R10-Pad2)*%
X242450000Y-164500000D03*
%TD*%
D22*
%TO.P,Q11,1,G_1*%
%TO.N,Net-(Q10-C)*%
X203500000Y-155000000D03*
D23*
%TO.P,Q11,2,D_2*%
%TO.N,Net-(J10-Pin_2)*%
X200960000Y-155000000D03*
%TO.P,Q11,3,S_3*%
%TO.N,12V*%
X198420000Y-155000000D03*
%TD*%
D22*
%TO.P,Q5,1,G_1*%
%TO.N,Net-(Q5-G)*%
X197960000Y-186450000D03*
D23*
%TO.P,Q5,2,D_2*%
%TO.N,Net-(J4-Pin_1)*%
X200500000Y-186450000D03*
%TO.P,Q5,3,S_3*%
%TO.N,12V*%
X203040000Y-186450000D03*
%TD*%
D12*
%TO.P,J24,1,Pin_1_1*%
%TO.N,unconnected-(J24-Pin_1-Pad1)*%
X267780000Y-160500000D03*
D13*
%TO.P,J24,2,Pin_2_2*%
%TO.N,unconnected-(J24-Pin_2-Pad2)*%
X265240000Y-160500000D03*
%TO.P,J24,3,Pin_3_3*%
%TO.N,ser3*%
X262700000Y-160500000D03*
%TO.P,J24,4,Pin_4_4*%
%TO.N,ser2*%
X260160000Y-160500000D03*
%TO.P,J24,5,Pin_5_5*%
%TO.N,ser1*%
X257620000Y-160500000D03*
%TO.P,J24,6,Pin_6_6*%
%TO.N,DW6*%
X255080000Y-160500000D03*
%TO.P,J24,7,Pin_7_7*%
%TO.N,DW5*%
X252540000Y-160500000D03*
%TO.P,J24,8,Pin_8_8*%
%TO.N,DW4*%
X250000000Y-160500000D03*
%TO.P,J24,9,Pin_9_9*%
%TO.N,DW3*%
X247460000Y-160500000D03*
%TO.P,J24,10,Pin_10_10*%
%TO.N,DW2*%
X244920000Y-160500000D03*
%TO.P,J24,11,Pin_11_11*%
%TO.N,DW1*%
X242380000Y-160500000D03*
%TO.P,J24,12,Pin_12_12*%
%TO.N,unconnected-(J24-Pin_12-Pad12)*%
X239840000Y-160500000D03*
%TO.P,J24,13,Pin_13_13*%
%TO.N,unconnected-(J24-Pin_13-Pad13)*%
X237300000Y-160500000D03*
%TO.P,J24,14,Pin_14_14*%
%TO.N,GNDESP32*%
X234760000Y-160500000D03*
%TO.P,J24,15,Pin_15_15*%
%TO.N,5V*%
X232220000Y-160500000D03*
%TD*%
D20*
%TO.P,U8,1*%
%TO.N,Net-(R25-Pad1)*%
X226650000Y-187770000D03*
%TO.P,U8,2*%
%TO.N,GNDESP32*%
X226650000Y-185230000D03*
%TO.P,U8,3*%
%TO.N,GND*%
X220350000Y-185230000D03*
%TO.P,U8,4*%
%TO.N,Net-(Q23-E)*%
X220350000Y-187770000D03*
%TD*%
D25*
%TO.P,Q17,1,E_1*%
%TO.N,GND*%
X180230000Y-155590000D03*
D26*
%TO.P,Q17,2,B_2*%
%TO.N,Net-(Q17-B)*%
X178960000Y-155590000D03*
%TO.P,Q17,3,C_3*%
%TO.N,Net-(Q15-G)*%
X177690000Y-155590000D03*
%TD*%
D12*
%TO.P,J22,1,Pin_1_1*%
%TO.N,ser2*%
X280000000Y-209540000D03*
D13*
%TO.P,J22,2,Pin_2_2*%
%TO.N,5Vsevo*%
X280000000Y-207000000D03*
%TO.P,J22,3,Pin_3_3*%
%TO.N,GND*%
X280000000Y-204460000D03*
%TD*%
D30*
%TO.P,C1,1*%
%TO.N,Net-(Q4-G)*%
X178500000Y-176705100D03*
D14*
%TO.P,C1,2*%
%TO.N,Net-(J2-Pin_1)*%
X178500000Y-174205100D03*
%TD*%
D24*
%TO.P,R26,1*%
%TO.N,12V*%
X149450000Y-210000000D03*
%TO.P,R26,2*%
%TO.N,Net-(Q19-C)*%
X152550000Y-210000000D03*
%TD*%
%TO.P,R31,1*%
%TO.N,Net-(Q21-B)*%
X170090000Y-191230000D03*
%TO.P,R31,2*%
%TO.N,DW7*%
X173190000Y-191230000D03*
%TD*%
D31*
%TO.P,BZ1,1,+_1*%
%TO.N,12V*%
X241000000Y-134700000D03*
D32*
%TO.P,BZ1,2,-_2*%
%TO.N,Net-(BZ1--)*%
X241000000Y-142300000D03*
%TD*%
D14*
%TO.P,R4,1*%
%TO.N,Net-(Q3-G)*%
X191310000Y-195500000D03*
%TO.P,R4,2*%
%TO.N,GND*%
X183690000Y-195500000D03*
%TD*%
%TO.P,R3,1*%
%TO.N,Net-(Q1-B)*%
X178000000Y-191690000D03*
%TO.P,R3,2*%
%TO.N,Net-(Q6-G)*%
X178000000Y-199310000D03*
%TD*%
D30*
%TO.P,C6,1*%
%TO.N,Net-(Q19-B)*%
X158230000Y-200042400D03*
D14*
%TO.P,C6,2*%
%TO.N,Net-(J15-Pin_1)*%
X158230000Y-197542400D03*
%TD*%
D15*
%TO.P,J2,1,Pin_1_1*%
%TO.N,Net-(J2-Pin_1)*%
X258500000Y-198000000D03*
D16*
%TO.P,J2,2,Pin_2_2*%
%TO.N,GND*%
X258500000Y-199000000D03*
%TD*%
D15*
%TO.P,J19,1,Pin_1_1*%
%TO.N,Net-(J19-Pin_1)*%
X223500000Y-138000000D03*
D16*
%TO.P,J19,2,Pin_2_2*%
%TO.N,Net-(J19-Pin_2)*%
X223500000Y-139000000D03*
%TD*%
D22*
%TO.P,U4,1,IN_1*%
%TO.N,12V*%
X234460000Y-151950000D03*
D23*
%TO.P,U4,2,GND_2*%
%TO.N,GND*%
X237000000Y-151950000D03*
%TO.P,U4,3,OUT_3*%
%TO.N,5V*%
X239540000Y-151950000D03*
%TD*%
D28*
%TO.P,U6,1,IN_1*%
%TO.N,12V*%
X281550000Y-153960000D03*
D29*
%TO.P,U6,2,GND_2*%
%TO.N,GND*%
X281550000Y-156500000D03*
%TO.P,U6,3,OUT_3*%
%TO.N,5VAMP*%
X281550000Y-159040000D03*
%TD*%
D28*
%TO.P,Q4,1,G_1*%
%TO.N,Net-(Q4-G)*%
X183050000Y-167960000D03*
D29*
%TO.P,Q4,2,D_2*%
%TO.N,Net-(J6-Pin_2)*%
X183050000Y-170500000D03*
%TO.P,Q4,3,S_3*%
%TO.N,GND*%
X183050000Y-173040000D03*
%TD*%
D27*
%TO.P,R18,1*%
%TO.N,12V*%
X164000000Y-132950000D03*
%TO.P,R18,2*%
%TO.N,Net-(J11-Pin_2)*%
X164000000Y-136050000D03*
%TD*%
D18*
%TO.P,R15,1*%
%TO.N,Net-(J11-Pin_1)*%
X153500000Y-144050000D03*
%TO.P,R15,2*%
%TO.N,Net-(Q13-G)*%
X153500000Y-140950000D03*
%TD*%
D22*
%TO.P,Q3,1,G_1*%
%TO.N,Net-(Q3-G)*%
X190500000Y-200000000D03*
D23*
%TO.P,Q3,2,D_2*%
%TO.N,Net-(J4-Pin_2)*%
X187960000Y-200000000D03*
%TO.P,Q3,3,S_3*%
%TO.N,GND*%
X185420000Y-200000000D03*
%TD*%
D19*
%TO.P,R39,1*%
%TO.N,12V*%
X232550000Y-201500000D03*
%TO.P,R39,2*%
%TO.N,Net-(Q25-B)*%
X229450000Y-201500000D03*
%TD*%
D10*
%TO.P,Q22,1,E_1*%
%TO.N,GND*%
X166360000Y-185770000D03*
D11*
%TO.P,Q22,2,B_2*%
%TO.N,Net-(Q22-B)*%
X166360000Y-184500000D03*
%TO.P,Q22,3,C_3*%
%TO.N,Net-(J16-Pin_2)*%
X166360000Y-183230000D03*
%TD*%
D27*
%TO.P,R23,1*%
%TO.N,12V*%
X171500000Y-132950000D03*
%TO.P,R23,2*%
%TO.N,Net-(J12-Pin_2)*%
X171500000Y-136050000D03*
%TD*%
D19*
%TO.P,R38,1*%
%TO.N,12V*%
X232550000Y-205000000D03*
%TO.P,R38,2*%
%TO.N,Net-(J18-Pin_2)*%
X229450000Y-205000000D03*
%TD*%
D20*
%TO.P,U1,1*%
%TO.N,Net-(R1-Pad2)*%
X226650000Y-171270000D03*
%TO.P,U1,2*%
%TO.N,GNDESP32*%
X226650000Y-168730000D03*
%TO.P,U1,3*%
%TO.N,Net-(Q6-G)*%
X220350000Y-168730000D03*
%TO.P,U1,4*%
%TO.N,12V*%
X220350000Y-171270000D03*
%TD*%
D24*
%TO.P,R33,1*%
%TO.N,Net-(Q22-B)*%
X169950000Y-184770000D03*
%TO.P,R33,2*%
%TO.N,DW8*%
X173050000Y-184770000D03*
%TD*%
D30*
%TO.P,C3,1*%
%TO.N,Net-(Q14-G)*%
X147500000Y-158705100D03*
D14*
%TO.P,C3,2*%
%TO.N,GND*%
X147500000Y-156205100D03*
%TD*%
D19*
%TO.P,R40,1*%
%TO.N,12V*%
X232550000Y-198000000D03*
%TO.P,R40,2*%
%TO.N,Net-(Q24-B)*%
X229450000Y-198000000D03*
%TD*%
D10*
%TO.P,Q23,1,E_1*%
%TO.N,Net-(Q23-E)*%
X254000000Y-145500000D03*
D11*
%TO.P,Q23,2,B_2*%
%TO.N,Net-(Q23-B)*%
X254000000Y-146770000D03*
%TO.P,Q23,3,C_3*%
%TO.N,Net-(BZ1--)*%
X254000000Y-148040000D03*
%TD*%
D14*
%TO.P,R7,1*%
%TO.N,12V*%
X204310000Y-191000000D03*
%TO.P,R7,2*%
%TO.N,Net-(Q5-G)*%
X196690000Y-191000000D03*
%TD*%
D24*
%TO.P,R30,1*%
%TO.N,12V*%
X149450000Y-198000000D03*
%TO.P,R30,2*%
%TO.N,Net-(J15-Pin_1)*%
X152550000Y-198000000D03*
%TD*%
D15*
%TO.P,J11,1,Pin_1_1*%
%TO.N,Net-(J11-Pin_1)*%
X242000000Y-212000000D03*
D16*
%TO.P,J11,2,Pin_2_2*%
%TO.N,Net-(J11-Pin_2)*%
X242000000Y-211000000D03*
%TD*%
D12*
%TO.P,J21,1,Pin_1_1*%
%TO.N,ser1*%
X150000000Y-171460000D03*
D13*
%TO.P,J21,2,Pin_2_2*%
%TO.N,5Vsevo*%
X150000000Y-174000000D03*
%TO.P,J21,3,Pin_3_3*%
%TO.N,GND*%
X150000000Y-176540000D03*
%TD*%
D15*
%TO.P,J14,1,Pin_1_1*%
%TO.N,12V*%
X283000000Y-183000000D03*
D16*
%TO.P,J14,2,Pin_2_2*%
%TO.N,Net-(J14-Pin_2)*%
X283000000Y-184000000D03*
%TD*%
D15*
%TO.P,J9,1,Pin_1_1*%
%TO.N,Net-(J10-Pin_1)*%
X194500000Y-134500000D03*
D16*
%TO.P,J9,2,Pin_2_2*%
%TO.N,Net-(J10-Pin_2)*%
X195500000Y-134500000D03*
%TD*%
D25*
%TO.P,Q8,1,E_1*%
%TO.N,GND*%
X209230000Y-185860000D03*
D26*
%TO.P,Q8,2,B_2*%
%TO.N,Net-(Q8-B)*%
X210500000Y-185860000D03*
%TO.P,Q8,3,C_3*%
%TO.N,Net-(Q5-G)*%
X211770000Y-185860000D03*
%TD*%
D33*
%TO.N,Net-(J11-Pin_2)*%
X163801700Y-134713800D03*
X239931298Y-211000000D03*
X162348900Y-200965800D03*
%TO.N,Net-(J2-Pin_1)*%
X210566000Y-178363500D03*
X218319300Y-191179600D03*
X226628400Y-191179600D03*
X233343600Y-192724100D03*
%TO.N,DW2*%
X246783700Y-163640600D03*
%TO.N,DW4*%
X249344600Y-173000000D03*
%TO.N,DW3*%
X245179900Y-170000000D03*
%TO.N,Net-(J12-Pin_2)*%
X218180700Y-139977100D03*
%TO.N,Net-(J12-Pin_1)*%
X228247300Y-198824700D03*
X219420500Y-198824700D03*
X212654400Y-160452100D03*
%TO.N,Net-(J6-Pin_1)*%
X229041100Y-155473700D03*
%TO.N,DW7*%
X227947100Y-193847600D03*
%TO.N,Net-(J8-Pin_2)*%
X212942000Y-147682200D03*
X211915000Y-178114200D03*
X210705500Y-179778200D03*
%TO.N,Net-(J11-Pin_1)*%
X156052400Y-143111000D03*
%TO.N,Net-(Q16-G)*%
X186824500Y-144390200D03*
X207337600Y-164792500D03*
%TO.N,Net-(J16-Pin_2)*%
X196424900Y-177511000D03*
X206520600Y-158247000D03*
X265991600Y-155386600D03*
%TO.N,DW6*%
X250672700Y-182000000D03*
%TO.N,Net-(R25-Pad1)*%
X232930900Y-182000000D03*
X228350000Y-187770000D03*
%TO.N,Net-(Q24-B)*%
X231114500Y-197765600D03*
%TO.N,Net-(R9-Pad2)*%
X228221600Y-160270000D03*
X239394700Y-176646900D03*
%TO.N,DW5*%
X250669800Y-178500000D03*
%TO.N,Net-(J8-Pin_1)*%
X205822700Y-189617000D03*
X193671800Y-186167100D03*
X193429300Y-158973000D03*
%TO.N,Net-(J20-Pin_2)*%
X222120000Y-189423200D03*
%TO.N,Net-(J19-Pin_2)*%
X226227800Y-196576000D03*
%TO.N,Net-(Q3-G)*%
X194324200Y-199475000D03*
X205083100Y-163513000D03*
%TO.N,Net-(Q12-G)*%
X200799700Y-183172200D03*
%TO.N,GNDESP32*%
X232420100Y-163405700D03*
%TO.N,Net-(J13-Pin_2)*%
X276260200Y-152050000D03*
%TO.N,Net-(J18-Pin_2)*%
X224073899Y-205917403D03*
%TO.N,Net-(J17-Pin_1)*%
X227279800Y-200237400D03*
%TO.N,DW1*%
X245550000Y-167045200D03*
%TO.N,Net-(J6-Pin_2)*%
X220829200Y-175552000D03*
%TO.N,Net-(Q23-E)*%
X259677700Y-147083600D03*
X226284400Y-188822300D03*
%TO.N,Net-(J14-Pin_2)*%
X269999999Y-155677300D03*
%TO.N,Net-(U9A--)*%
X262365000Y-147070600D03*
X263250000Y-151000000D03*
%TO.N,Net-(J10-Pin_2)*%
X252323200Y-136912800D03*
%TO.N,Net-(J10-Pin_1)*%
X196359400Y-132078100D03*
%TO.N,Net-(Q6-G)*%
X219129900Y-195500000D03*
X219744800Y-169888975D03*
%TO.N,5Vsevo*%
X159189700Y-213800500D03*
%TO.N,Net-(J15-Pin_2)*%
X171641600Y-211983600D03*
%TD*%
%TO.N,GNDESP32*%
D34*
X226220000Y-179730000D02*
X224950000Y-181000000D01*
X226650000Y-179730000D02*
X226220000Y-179730000D01*
X226220000Y-174230000D02*
X224950000Y-175500000D01*
X226650000Y-174230000D02*
X226220000Y-174230000D01*
X226650000Y-168730000D02*
X226220000Y-168730000D01*
X226220000Y-168730000D02*
X224950000Y-170000000D01*
X226825700Y-163405700D02*
X232420100Y-163405700D01*
X226650000Y-163230000D02*
X226825700Y-163405700D01*
X224950000Y-164930000D02*
X224950000Y-168580200D01*
X226650000Y-163230000D02*
X224950000Y-164930000D01*
%TO.N,12V*%
X219729999Y-165770000D02*
X220350000Y-165770000D01*
X217999999Y-169500000D02*
X217999999Y-167500000D01*
X217999999Y-167500000D02*
X219729999Y-165770000D01*
X219769999Y-171270000D02*
X217999999Y-169500000D01*
X220350000Y-171270000D02*
X219769999Y-171270000D01*
%TO.N,Net-(Q6-G)*%
X219744800Y-169335200D02*
X219744800Y-169888975D01*
X220350000Y-168730000D02*
X219744800Y-169335200D01*
%TO.N,Net-(Q25-B)*%
X244910200Y-197500000D02*
X239500000Y-202910200D01*
X249809999Y-197500000D02*
X244910200Y-197500000D01*
X251000000Y-196309999D02*
X249809999Y-197500000D01*
X251000000Y-195360000D02*
X251000000Y-196309999D01*
%TO.N,Net-(J19-Pin_1)*%
X251409999Y-193910000D02*
X240384900Y-193910000D01*
X252270000Y-194770001D02*
X251409999Y-193910000D01*
X240384900Y-193910000D02*
X239500000Y-194794900D01*
X252270000Y-195360000D02*
X252270000Y-194770001D01*
%TO.N,Net-(J2-Pin_1)*%
X252380300Y-192724100D02*
X257656200Y-198000000D01*
X233343600Y-192724100D02*
X252380300Y-192724100D01*
X257656200Y-198000000D02*
X258500000Y-198000000D01*
%TO.N,Net-(J17-Pin_1)*%
X223500000Y-204017200D02*
X227279800Y-200237400D01*
X223500000Y-204500000D02*
X223500000Y-204017200D01*
%TO.N,Net-(J15-Pin_2)*%
X233886100Y-211983600D02*
X171641600Y-211983600D01*
X236846400Y-209023300D02*
X233886100Y-211983600D01*
X238500400Y-209023300D02*
X236846400Y-209023300D01*
X239502100Y-210025000D02*
X238500400Y-209023300D01*
X242403859Y-210025000D02*
X239502100Y-210025000D01*
X244362459Y-211983600D02*
X242403859Y-210025000D01*
X269000000Y-208500000D02*
X265516400Y-211983600D01*
X265516400Y-211983600D02*
X244362459Y-211983600D01*
%TO.N,Net-(J11-Pin_2)*%
X238032500Y-212898800D02*
X239931298Y-211000000D01*
X171195700Y-212898800D02*
X238032500Y-212898800D01*
X162348900Y-200965800D02*
X168076700Y-206693600D01*
X168076700Y-209779800D02*
X171195700Y-212898800D01*
X168076700Y-206693600D02*
X168076700Y-209779800D01*
%TO.N,Net-(J18-Pin_2)*%
X229450000Y-205000000D02*
X224991302Y-205000000D01*
X224991302Y-205000000D02*
X224073899Y-205917403D01*
%TO.N,Net-(U9A--)*%
X262200000Y-152050000D02*
X263250000Y-151000000D01*
X261500000Y-152050000D02*
X262200000Y-152050000D01*
%TO.N,Net-(J14-Pin_2)*%
X268627300Y-155677300D02*
X269999999Y-155677300D01*
X265000000Y-152050000D02*
X268627300Y-155677300D01*
%TO.N,5VAMP*%
X272999999Y-162500000D02*
X278090000Y-162500000D01*
X278090000Y-162500000D02*
X281550000Y-159040000D01*
X267321499Y-156821500D02*
X272999999Y-162500000D01*
X225371000Y-156821500D02*
X267321499Y-156821500D01*
X222050000Y-160142500D02*
X225371000Y-156821500D01*
X222050000Y-160270000D02*
X222050000Y-160142500D01*
X220350000Y-160270000D02*
X222050000Y-160270000D01*
%TO.N,Net-(J15-Pin_1)*%
X162735000Y-199538500D02*
X162735000Y-199000000D01*
X174029100Y-210832600D02*
X162735000Y-199538500D01*
X236475308Y-208121600D02*
X233764308Y-210832600D01*
X233764308Y-210832600D02*
X174029100Y-210832600D01*
X239249892Y-208500000D02*
X238871492Y-208121600D01*
X262999999Y-208500000D02*
X239249892Y-208500000D01*
X262999999Y-208146401D02*
X262999999Y-208500000D01*
X238871492Y-208121600D02*
X236475308Y-208121600D01*
X263646400Y-207500000D02*
X262999999Y-208146401D01*
X269000000Y-207500000D02*
X263646400Y-207500000D01*
%TO.N,Net-(J4-Pin_1)*%
X209140900Y-209930900D02*
X200960000Y-201750000D01*
X233388400Y-209930900D02*
X209140900Y-209930900D01*
X236099400Y-207219900D02*
X233388400Y-209930900D01*
X256719900Y-207219900D02*
X236099400Y-207219900D01*
X257000000Y-207500000D02*
X256719900Y-207219900D01*
X200960000Y-201750000D02*
X200960000Y-200050000D01*
%TO.N,Net-(Q14-G)*%
X160817000Y-152050000D02*
X165500000Y-152050000D01*
X154999999Y-157867001D02*
X160817000Y-152050000D01*
X154999999Y-160500000D02*
X154999999Y-157867001D01*
X153205099Y-158705100D02*
X154999999Y-160500000D01*
X158539999Y-164040000D02*
X166450000Y-164040000D01*
X153205099Y-158705100D02*
X158539999Y-164040000D01*
X147500000Y-158705100D02*
X153205099Y-158705100D01*
%TO.N,GND*%
X166360000Y-186995000D02*
X166360000Y-185770000D01*
X165050000Y-188305000D02*
X166360000Y-186995000D01*
X165829720Y-192305000D02*
X165050000Y-191525280D01*
X165050000Y-191525280D02*
X165050000Y-188305000D01*
X166500000Y-192500000D02*
X166305000Y-192305000D01*
X166305000Y-192305000D02*
X165829720Y-192305000D01*
%TO.N,Net-(Q12-G)*%
X221622700Y-183172200D02*
X200799700Y-183172200D01*
X222050000Y-181430000D02*
X222050000Y-182744900D01*
X220350000Y-179730000D02*
X222050000Y-181430000D01*
X222050000Y-182744900D02*
X221622700Y-183172200D01*
%TO.N,12V*%
X218650000Y-178470000D02*
X220350000Y-176770000D01*
X218650000Y-180935400D02*
X218650000Y-178470000D01*
X221999999Y-176000000D02*
X221229999Y-176770000D01*
X221229999Y-176770000D02*
X220350000Y-176770000D01*
X221999999Y-172000000D02*
X221999999Y-176000000D01*
X221269999Y-171270000D02*
X221999999Y-172000000D01*
X220350000Y-171270000D02*
X221269999Y-171270000D01*
%TO.N,Net-(Q22-B)*%
X169680000Y-184500000D02*
X166360000Y-184500000D01*
X169950000Y-184770000D02*
X169680000Y-184500000D01*
%TO.N,Net-(J11-Pin_2)*%
X163801700Y-135851700D02*
X163801700Y-134713800D01*
X164000000Y-136050000D02*
X163801700Y-135851700D01*
%TO.N,Net-(BZ1--)*%
X246740000Y-148040000D02*
X241000000Y-142300000D01*
X254000000Y-148040000D02*
X246740000Y-148040000D01*
%TO.N,Net-(J2-Pin_1)*%
X226628400Y-191179600D02*
X218319300Y-191179600D01*
X208522500Y-176320000D02*
X210566000Y-178363500D01*
X180614900Y-176320000D02*
X208522500Y-176320000D01*
X178500000Y-174205100D02*
X180614900Y-176320000D01*
%TO.N,ser1*%
X150000000Y-171460000D02*
X151550000Y-171460000D01*
X255791700Y-162328300D02*
X257620000Y-160500000D01*
X194577600Y-162328300D02*
X255791700Y-162328300D01*
X191018800Y-165887100D02*
X194577600Y-162328300D01*
X157122900Y-165887100D02*
X191018800Y-165887100D01*
X151550000Y-171460000D02*
X157122900Y-165887100D01*
%TO.N,Net-(Q5-G)*%
X211770000Y-185860000D02*
X211770000Y-184410000D01*
X200000000Y-184410000D02*
X211770000Y-184410000D01*
X197960000Y-186450000D02*
X200000000Y-184410000D01*
%TO.N,DW2*%
X246409400Y-163640600D02*
X245550000Y-164500000D01*
X246783700Y-163640600D02*
X246409400Y-163640600D01*
%TO.N,DW4*%
X247550000Y-173000000D02*
X245550000Y-175000000D01*
X249344600Y-173000000D02*
X247550000Y-173000000D01*
%TO.N,DW3*%
X245550000Y-170370100D02*
X245550000Y-171500000D01*
X245179900Y-170000000D02*
X245550000Y-170370100D01*
%TO.N,Net-(R11-Pad2)*%
X226650000Y-176770000D02*
X228350000Y-176770000D01*
X232823600Y-172296400D02*
X228350000Y-176770000D01*
X241653600Y-172296400D02*
X232823600Y-172296400D01*
X242450000Y-171500000D02*
X241653600Y-172296400D01*
%TO.N,Net-(J12-Pin_2)*%
X208567200Y-136050000D02*
X171500000Y-136050000D01*
X212494300Y-139977100D02*
X208567200Y-136050000D01*
X218180700Y-139977100D02*
X212494300Y-139977100D01*
%TO.N,Net-(J12-Pin_1)*%
X167450000Y-147000000D02*
X172050000Y-147000000D01*
X165500000Y-148950000D02*
X167450000Y-147000000D01*
X219420500Y-198824700D02*
X228247300Y-198824700D01*
X177002100Y-160452100D02*
X165500000Y-148950000D01*
X212654400Y-160452100D02*
X177002100Y-160452100D01*
%TO.N,Net-(J6-Pin_1)*%
X220350000Y-157730000D02*
X222050000Y-157730000D01*
X224306300Y-155473700D02*
X229041100Y-155473700D01*
X222050000Y-157730000D02*
X224306300Y-155473700D01*
%TO.N,DW7*%
X175807600Y-193847600D02*
X227947100Y-193847600D01*
X173190000Y-191230000D02*
X175807600Y-193847600D01*
%TO.N,Net-(J17-Pin_2)*%
X216500000Y-208500000D02*
X229450000Y-208500000D01*
X213500000Y-205500000D02*
X216500000Y-208500000D01*
%TO.N,Net-(J8-Pin_2)*%
X211915000Y-178568700D02*
X210705500Y-179778200D01*
X211915000Y-178114200D02*
X211915000Y-178568700D01*
X202996400Y-137736600D02*
X212942000Y-147682200D01*
X169306600Y-137736600D02*
X202996400Y-137736600D01*
X167620000Y-136050000D02*
X169306600Y-137736600D01*
%TO.N,Net-(J11-Pin_1)*%
X154439000Y-143111000D02*
X153500000Y-144050000D01*
X156052400Y-143111000D02*
X154439000Y-143111000D01*
%TO.N,Net-(Q1-C)*%
X182707500Y-185860000D02*
X183347500Y-186500000D01*
X179270000Y-185860000D02*
X182707500Y-185860000D01*
X185000000Y-186500000D02*
X183347500Y-186500000D01*
%TO.N,Net-(Q13-G)*%
X154050000Y-141500000D02*
X153500000Y-140950000D01*
X159000000Y-141500000D02*
X154050000Y-141500000D01*
X152655100Y-141794900D02*
X153500000Y-140950000D01*
X147500000Y-141794900D02*
X152655100Y-141794900D01*
%TO.N,Net-(Q16-G)*%
X188434300Y-146000000D02*
X192310000Y-146000000D01*
X186824500Y-144390200D02*
X188434300Y-146000000D01*
X209212500Y-164792500D02*
X207337600Y-164792500D01*
X218650000Y-174230000D02*
X209212500Y-164792500D01*
X220350000Y-174230000D02*
X218650000Y-174230000D01*
%TO.N,Net-(J16-Pin_2)*%
X236201600Y-155386600D02*
X265991600Y-155386600D01*
X235365200Y-154550200D02*
X236201600Y-155386600D01*
X220421500Y-154550200D02*
X235365200Y-154550200D01*
X216724700Y-158247000D02*
X220421500Y-154550200D01*
X206520600Y-158247000D02*
X216724700Y-158247000D01*
X166360000Y-183230000D02*
X167810000Y-183230000D01*
X190705900Y-183230000D02*
X167810000Y-183230000D01*
X196424900Y-177511000D02*
X190705900Y-183230000D01*
%TO.N,Net-(J15-Pin_1)*%
X153007600Y-197542400D02*
X152550000Y-198000000D01*
X158230000Y-197542400D02*
X153007600Y-197542400D01*
X163960000Y-199000000D02*
X162735000Y-199000000D01*
X161277400Y-197542400D02*
X162735000Y-199000000D01*
X158230000Y-197542400D02*
X161277400Y-197542400D01*
%TO.N,DW6*%
X250672700Y-182000000D02*
X245550000Y-182000000D01*
%TO.N,Net-(R25-Pad1)*%
X242450000Y-182000000D02*
X232930900Y-182000000D01*
X226650000Y-187770000D02*
X228350000Y-187770000D01*
%TO.N,Net-(Q24-B)*%
X229684400Y-197765600D02*
X229450000Y-198000000D01*
X231114500Y-197765600D02*
X229684400Y-197765600D01*
%TO.N,Net-(R9-Pad2)*%
X240596900Y-176646900D02*
X242450000Y-178500000D01*
X239394700Y-176646900D02*
X240596900Y-176646900D01*
X226650000Y-160270000D02*
X228221600Y-160270000D01*
%TO.N,DW5*%
X250669800Y-178500000D02*
X245550000Y-178500000D01*
%TO.N,Net-(Q19-C)*%
X153690000Y-208860000D02*
X152550000Y-210000000D01*
X158230000Y-208860000D02*
X153690000Y-208860000D01*
X159090000Y-208000000D02*
X158230000Y-208860000D01*
X164460000Y-208000000D02*
X159090000Y-208000000D01*
%TO.N,Net-(Q19-B)*%
X154507600Y-200042400D02*
X152550000Y-202000000D01*
X158230000Y-200042400D02*
X154507600Y-200042400D01*
X165730000Y-208000000D02*
X165730000Y-206550000D01*
X161180000Y-202000000D02*
X165730000Y-206550000D01*
X152550000Y-202000000D02*
X161180000Y-202000000D01*
%TO.N,Net-(J8-Pin_1)*%
X165910000Y-144040000D02*
X167500000Y-142450000D01*
X159000000Y-144040000D02*
X165910000Y-144040000D01*
X195724700Y-188220000D02*
X193671800Y-186167100D01*
X204425700Y-188220000D02*
X195724700Y-188220000D01*
X205822700Y-189617000D02*
X204425700Y-188220000D01*
X187642400Y-158973000D02*
X193429300Y-158973000D01*
X182247400Y-153578000D02*
X187642400Y-158973000D01*
X182247400Y-151590500D02*
X182247400Y-153578000D01*
X173106900Y-142450000D02*
X182247400Y-151590500D01*
X167500000Y-142450000D02*
X173106900Y-142450000D01*
%TO.N,Net-(Q25-B)*%
X230959400Y-203009400D02*
X229450000Y-201500000D01*
X239400800Y-203009400D02*
X230959400Y-203009400D01*
X239500000Y-202910200D02*
X239400800Y-203009400D01*
%TO.N,Net-(J20-Pin_2)*%
X222621600Y-189924800D02*
X222120000Y-189423200D01*
X228374800Y-189924800D02*
X222621600Y-189924800D01*
X229450000Y-191000000D02*
X228374800Y-189924800D01*
%TO.N,Net-(J19-Pin_1)*%
X223500000Y-138000000D02*
X213500000Y-138000000D01*
%TO.N,Net-(Q20-B)*%
X152910000Y-206360000D02*
X152550000Y-206000000D01*
X158230000Y-206360000D02*
X152910000Y-206360000D01*
%TO.N,Net-(J19-Pin_2)*%
X227374000Y-196576000D02*
X229450000Y-194500000D01*
X226227800Y-196576000D02*
X227374000Y-196576000D01*
%TO.N,Net-(Q18-G)*%
X168590000Y-144460000D02*
X167500000Y-145550000D01*
X172050000Y-144460000D02*
X168590000Y-144460000D01*
X161388100Y-148794900D02*
X147500000Y-148794900D01*
X164633000Y-145550000D02*
X161388100Y-148794900D01*
X167500000Y-145550000D02*
X164633000Y-145550000D01*
%TO.N,Net-(Q3-G)*%
X190500000Y-200000000D02*
X192152500Y-200000000D01*
X192677500Y-199475000D02*
X194324200Y-199475000D01*
X192152500Y-200000000D02*
X192677500Y-199475000D01*
X195355800Y-198443400D02*
X194324200Y-199475000D01*
X210133400Y-198443400D02*
X195355800Y-198443400D01*
X210500000Y-198810000D02*
X210133400Y-198443400D01*
X220350000Y-163230000D02*
X218650000Y-163230000D01*
X218367000Y-163513000D02*
X218650000Y-163230000D01*
X205083100Y-163513000D02*
X218367000Y-163513000D01*
%TO.N,Net-(R10-Pad2)*%
X241180000Y-165770000D02*
X242450000Y-164500000D01*
X226650000Y-165770000D02*
X241180000Y-165770000D01*
%TO.N,Net-(Q12-G)*%
X179596000Y-143276000D02*
X178960000Y-142640000D01*
X194426000Y-143276000D02*
X179596000Y-143276000D01*
X197150000Y-146000000D02*
X194426000Y-143276000D01*
%TO.N,GNDESP32*%
X231990000Y-157730000D02*
X226650000Y-157730000D01*
X234760000Y-160500000D02*
X231990000Y-157730000D01*
X224950000Y-168730000D02*
X224950000Y-174230000D01*
X224950000Y-174230000D02*
X224950000Y-179730000D01*
X226650000Y-184370200D02*
X226650000Y-185230000D01*
X226649900Y-184370200D02*
X226650000Y-184370200D01*
X224950000Y-182670300D02*
X226649900Y-184370200D01*
X224950000Y-179730000D02*
X224950000Y-182670300D01*
%TO.N,Net-(R24-Pad2)*%
X226650000Y-182270000D02*
X228350000Y-182270000D01*
X235620000Y-175000000D02*
X228350000Y-182270000D01*
X242450000Y-175000000D02*
X235620000Y-175000000D01*
%TO.N,Net-(J13-Pin_2)*%
X276260200Y-152050000D02*
X268500000Y-152050000D01*
%TO.N,Net-(Q23-B)*%
X255820000Y-146770000D02*
X258000000Y-148950000D01*
X254000000Y-146770000D02*
X255820000Y-146770000D01*
%TO.N,Net-(J17-Pin_1)*%
X248194800Y-205410200D02*
X248465000Y-205140000D01*
X239500000Y-205410200D02*
X248194800Y-205410200D01*
X249690000Y-205140000D02*
X248465000Y-205140000D01*
X213500000Y-204500000D02*
X223500000Y-204500000D01*
%TO.N,Net-(Q10-C)*%
X205742500Y-155590000D02*
X205152500Y-155000000D01*
X209190000Y-155590000D02*
X205742500Y-155590000D01*
X203500000Y-155000000D02*
X205152500Y-155000000D01*
%TO.N,Net-(R1-Pad2)*%
X239680000Y-171270000D02*
X242450000Y-168500000D01*
X226650000Y-171270000D02*
X239680000Y-171270000D01*
%TO.N,DW1*%
X245550000Y-167045200D02*
X245550000Y-168500000D01*
%TO.N,Net-(Q4-G)*%
X179010000Y-167960000D02*
X178500000Y-167450000D01*
X183050000Y-167960000D02*
X179010000Y-167960000D01*
X209050000Y-167960000D02*
X196550000Y-167960000D01*
X196550000Y-167960000D02*
X183050000Y-167960000D01*
%TO.N,Net-(J6-Pin_2)*%
X178550000Y-170500000D02*
X178500000Y-170550000D01*
X183050000Y-170500000D02*
X178550000Y-170500000D01*
X196550000Y-170500000D02*
X183050000Y-170500000D01*
X209050000Y-170500000D02*
X207350000Y-170500000D01*
X207350000Y-170500000D02*
X196550000Y-170500000D01*
X214102000Y-175552000D02*
X220829200Y-175552000D01*
X209050000Y-170500000D02*
X214102000Y-175552000D01*
%TO.N,12V*%
X171500000Y-132950000D02*
X167620000Y-132950000D01*
X164000000Y-132950000D02*
X167620000Y-132950000D01*
X260170000Y-141450000D02*
X261095000Y-140525000D01*
X258000000Y-141450000D02*
X260170000Y-141450000D01*
X149450000Y-198000000D02*
X149450000Y-202000000D01*
X149450000Y-210000000D02*
X149450000Y-206000000D01*
X149450000Y-202000000D02*
X149450000Y-206000000D01*
X189920800Y-189610800D02*
X191310000Y-191000000D01*
X172604200Y-189610800D02*
X189920800Y-189610800D01*
X171640000Y-190575000D02*
X172604200Y-189610800D01*
X171640000Y-191860400D02*
X171640000Y-190575000D01*
X169653000Y-193847400D02*
X171640000Y-191860400D01*
X153602600Y-193847400D02*
X169653000Y-193847400D01*
X149450000Y-198000000D02*
X153602600Y-193847400D01*
X283000000Y-172000000D02*
X274500000Y-172000000D01*
X261095000Y-139769300D02*
X261095000Y-140525000D01*
X261868200Y-138996100D02*
X261095000Y-139769300D01*
X268238600Y-138996100D02*
X261868200Y-138996100D01*
X281550000Y-152307500D02*
X268238600Y-138996100D01*
X241000000Y-134700000D02*
X239300000Y-134700000D01*
X232550000Y-205000000D02*
X232550000Y-208500000D01*
X231642400Y-205000000D02*
X232550000Y-205000000D01*
X229574000Y-202931600D02*
X231642400Y-205000000D01*
X228721500Y-202931600D02*
X229574000Y-202931600D01*
X228219500Y-202429600D02*
X228721500Y-202931600D01*
X228219500Y-200497200D02*
X228219500Y-202429600D01*
X228686500Y-200030200D02*
X228219500Y-200497200D01*
X232550000Y-200030200D02*
X228686500Y-200030200D01*
X232550000Y-198000000D02*
X232550000Y-200030200D01*
X232550000Y-200030200D02*
X232550000Y-201500000D01*
X232550000Y-198000000D02*
X232550000Y-194500000D01*
X281550000Y-153960000D02*
X281550000Y-152307500D01*
X251507400Y-134700000D02*
X241000000Y-134700000D01*
X258000000Y-141192600D02*
X251507400Y-134700000D01*
X258000000Y-141450000D02*
X258000000Y-141192600D01*
X237581300Y-132981300D02*
X239300000Y-134700000D01*
X171531300Y-132981300D02*
X237581300Y-132981300D01*
X171500000Y-132950000D02*
X171531300Y-132981300D01*
X220350000Y-182270000D02*
X219984600Y-182270000D01*
X190080000Y-186500000D02*
X191732500Y-186500000D01*
X219984600Y-182270000D02*
X218650000Y-180935400D01*
X205882800Y-192572800D02*
X232441900Y-192572800D01*
X204310000Y-191000000D02*
X205882800Y-192572800D01*
X232441900Y-191108100D02*
X232441900Y-192572800D01*
X232550000Y-191000000D02*
X232441900Y-191108100D01*
X232441900Y-194391900D02*
X232550000Y-194500000D01*
X232441900Y-192572800D02*
X232441900Y-194391900D01*
X195756600Y-151893400D02*
X197150000Y-150500000D01*
X186083400Y-151893400D02*
X195756600Y-151893400D01*
X184690000Y-150500000D02*
X186083400Y-151893400D01*
X172910800Y-138720800D02*
X184690000Y-150500000D01*
X164496000Y-138720800D02*
X172910800Y-138720800D01*
X162537800Y-136762600D02*
X164496000Y-138720800D01*
X162537800Y-134412200D02*
X162537800Y-136762600D01*
X164000000Y-132950000D02*
X162537800Y-134412200D01*
X202958300Y-189648300D02*
X204310000Y-191000000D01*
X192661700Y-189648300D02*
X202958300Y-189648300D01*
X191310000Y-191000000D02*
X192661700Y-189648300D01*
X197297100Y-180935400D02*
X218650000Y-180935400D01*
X191732500Y-186500000D02*
X197297100Y-180935400D01*
%TO.N,Net-(Q23-E)*%
X265000000Y-148950000D02*
X268500000Y-148950000D01*
X265000000Y-148950000D02*
X264905000Y-148855000D01*
X264905000Y-148855000D02*
X264905000Y-145475000D01*
X264905000Y-148855000D02*
X263250000Y-148855000D01*
X261595000Y-148855000D02*
X261500000Y-148950000D01*
X263250000Y-148855000D02*
X261595000Y-148855000D01*
X260398000Y-147083600D02*
X259677700Y-147083600D01*
X262169400Y-148855000D02*
X260398000Y-147083600D01*
X263250000Y-148855000D02*
X262169400Y-148855000D01*
X224724800Y-188822300D02*
X226284400Y-188822300D01*
X223672500Y-187770000D02*
X224724800Y-188822300D01*
X220350000Y-187770000D02*
X223672500Y-187770000D01*
%TO.N,Net-(J14-Pin_2)*%
X263635000Y-144755900D02*
X263635000Y-145475000D01*
X265064300Y-143326600D02*
X263635000Y-144755900D01*
X264905000Y-143167300D02*
X265064300Y-143326600D01*
X264905000Y-140525000D02*
X264905000Y-143167300D01*
X266632100Y-150417900D02*
X265000000Y-152050000D01*
X269200100Y-150417900D02*
X266632100Y-150417900D01*
X269980600Y-149637400D02*
X269200100Y-150417900D01*
X269980600Y-148242900D02*
X269980600Y-149637400D01*
X265064300Y-143326600D02*
X269980600Y-148242900D01*
%TO.N,Net-(U9A--)*%
X258656300Y-143893700D02*
X258000000Y-144550000D01*
X262365000Y-143893700D02*
X258656300Y-143893700D01*
X263635000Y-142623700D02*
X262365000Y-143893700D01*
X263635000Y-140525000D02*
X263635000Y-142623700D01*
X262365000Y-143893700D02*
X262365000Y-145475000D01*
X262365000Y-145475000D02*
X262365000Y-147070600D01*
%TO.N,Net-(R36-Pad1)*%
X259488400Y-150561600D02*
X258000000Y-152050000D01*
X259488400Y-148169500D02*
X259488400Y-150561600D01*
X258776000Y-147457100D02*
X259488400Y-148169500D01*
X258776000Y-146499200D02*
X258776000Y-147457100D01*
X259800200Y-145475000D02*
X258776000Y-146499200D01*
X261095000Y-145475000D02*
X259800200Y-145475000D01*
X262365000Y-141247800D02*
X262365000Y-140525000D01*
X260790500Y-142822300D02*
X262365000Y-141247800D01*
X257542700Y-142822300D02*
X260790500Y-142822300D01*
X256562300Y-143802700D02*
X257542700Y-142822300D01*
X256562300Y-145278300D02*
X256562300Y-143802700D01*
X257783200Y-146499200D02*
X256562300Y-145278300D01*
X258776000Y-146499200D02*
X257783200Y-146499200D01*
%TO.N,Net-(J10-Pin_2)*%
X200960000Y-143190000D02*
X201000000Y-143150000D01*
X200960000Y-155000000D02*
X200960000Y-143190000D01*
X201000000Y-141450000D02*
X201000000Y-143150000D01*
X240237500Y-136912800D02*
X252323200Y-136912800D01*
X237824700Y-134500000D02*
X240237500Y-136912800D01*
X195500000Y-134500000D02*
X237824700Y-134500000D01*
%TO.N,Net-(J10-Pin_1)*%
X251078100Y-132078100D02*
X196359400Y-132078100D01*
X254000000Y-135000000D02*
X251078100Y-132078100D01*
%TO.N,Net-(Q6-G)*%
X202764500Y-197045500D02*
X204310000Y-195500000D01*
X193485400Y-197045500D02*
X202764500Y-197045500D01*
X192583700Y-197947200D02*
X193485400Y-197045500D01*
X179362800Y-197947200D02*
X192583700Y-197947200D01*
X178000000Y-199310000D02*
X179362800Y-197947200D01*
X204310000Y-195500000D02*
X219129900Y-195500000D01*
%TO.N,5Vsevo*%
X273199500Y-213800500D02*
X280000000Y-207000000D01*
X159189700Y-213800500D02*
X273199500Y-213800500D01*
%TO.N,Net-(Q21-B)*%
X170090000Y-191230000D02*
X166500000Y-191230000D01*
%TO.N,GND*%
X183050000Y-173040000D02*
X196550000Y-173040000D01*
X209050000Y-173040000D02*
X196550000Y-173040000D01*
X149785100Y-146580000D02*
X147500000Y-144294900D01*
X159000000Y-146580000D02*
X149785100Y-146580000D01*
X237000000Y-151950000D02*
X237000000Y-153650000D01*
X211730000Y-155590000D02*
X212955000Y-155590000D01*
X212955000Y-153650000D02*
X212955000Y-155590000D01*
X204770000Y-146803000D02*
X204770000Y-146000000D01*
X211617000Y-153650000D02*
X204770000Y-146803000D01*
X212955000Y-153650000D02*
X211617000Y-153650000D01*
X220350000Y-185230000D02*
X222050000Y-185230000D01*
X194244200Y-139898300D02*
X192692500Y-141450000D01*
X201988300Y-139898300D02*
X194244200Y-139898300D01*
X203540000Y-141450000D02*
X201988300Y-139898300D01*
X191040000Y-141450000D02*
X192692500Y-141450000D01*
X166500000Y-199000000D02*
X167725000Y-199000000D01*
X183690000Y-195500000D02*
X183690000Y-196876700D01*
X191928800Y-196876700D02*
X183690000Y-196876700D01*
X193305500Y-195500000D02*
X191928800Y-196876700D01*
X196690000Y-195500000D02*
X193305500Y-195500000D01*
X169848300Y-196876700D02*
X167725000Y-199000000D01*
X183690000Y-196876700D02*
X169848300Y-196876700D01*
X263960000Y-204460000D02*
X258500000Y-199000000D01*
X280000000Y-204460000D02*
X263960000Y-204460000D01*
X220350000Y-185230000D02*
X218650000Y-185230000D01*
X233324700Y-184564700D02*
X234760000Y-186000000D01*
X229415600Y-184564700D02*
X233324700Y-184564700D01*
X227848600Y-186131700D02*
X229415600Y-184564700D01*
X225451400Y-186131700D02*
X227848600Y-186131700D01*
X224549800Y-185230100D02*
X225451400Y-186131700D01*
X224549800Y-185230000D02*
X224549800Y-185230100D01*
X222050000Y-185230000D02*
X224549800Y-185230000D01*
X212956500Y-153648500D02*
X212955000Y-153650000D01*
X236998500Y-153648500D02*
X212956500Y-153648500D01*
X237000000Y-153650000D02*
X236998500Y-153648500D01*
X209230000Y-185860000D02*
X209230000Y-187310000D01*
X216570000Y-187310000D02*
X209230000Y-187310000D01*
X218650000Y-185230000D02*
X216570000Y-187310000D01*
%TD*%
M02*
