%TF.GenerationSoftware,KiCad,Pcbnew,10.0.4*%
%TF.CreationDate,2026-07-06T19:53:58-04:00*%
%TF.ProjectId,CARRITODWOFICIAL,43415252-4954-44f4-9457-4f4649434941,rev?*%
%TF.SameCoordinates,Original*%
%TF.FileFunction,Soldermask,Bot*%
%TF.FilePolarity,Negative*%
%FSLAX46Y46*%
G04 Gerber Fmt 4.6, Leading zero omitted, Abs format (unit mm)*
G04 Created by KiCad (PCBNEW 10.0.4) date 2026-07-06 19:53:58*
%MOMM*%
%LPD*%
G01*
G04 APERTURE LIST*
G04 Aperture macros list*
%AMRoundRect*
0 Rectangle with rounded corners*
0 $1 Rounding radius*
0 $2 $3 $4 $5 $6 $7 $8 $9 X,Y pos of 4 corners*
0 Add a 4 corners polygon primitive as box body*
4,1,4,$2,$3,$4,$5,$6,$7,$8,$9,$2,$3,0*
0 Add four circle primitives for the rounded corners*
1,1,$1+$1,$2,$3*
1,1,$1+$1,$4,$5*
1,1,$1+$1,$6,$7*
1,1,$1+$1,$8,$9*
0 Add four rect primitives between the rounded corners*
20,1,$1+$1,$2,$3,$4,$5,0*
20,1,$1+$1,$4,$5,$6,$7,0*
20,1,$1+$1,$6,$7,$8,$9,0*
20,1,$1+$1,$8,$9,$2,$3,0*%
G04 Aperture macros list end*
%ADD10R,1.500000X1.050000*%
%ADD11O,1.500000X1.050000*%
%ADD12R,1.700000X1.700000*%
%ADD13C,1.700000*%
%ADD14C,1.600000*%
%ADD15R,0.850000X0.850000*%
%ADD16C,0.850000*%
%ADD17C,3.500000*%
%ADD18RoundRect,0.250000X-0.550000X0.550000X-0.550000X-0.550000X0.550000X-0.550000X0.550000X0.550000X0*%
%ADD19R,1.905000X2.000000*%
%ADD20O,1.905000X2.000000*%
%ADD21R,1.050000X1.500000*%
%ADD22O,1.050000X1.500000*%
%ADD23R,2.000000X1.905000*%
%ADD24O,2.000000X1.905000*%
%ADD25RoundRect,0.250000X0.550000X-0.550000X0.550000X0.550000X-0.550000X0.550000X-0.550000X-0.550000X0*%
%ADD26R,2.000000X2.000000*%
%ADD27C,2.000000*%
G04 APERTURE END LIST*
D10*
%TO.C,Q21*%
X166500000Y-192500000D03*
D11*
X166500000Y-191230000D03*
X166500000Y-189960000D03*
%TD*%
D12*
%TO.C,J23*%
X281000000Y-142540000D03*
D13*
X281000000Y-140000000D03*
X281000000Y-137460000D03*
%TD*%
D14*
%TO.C,R6*%
X204310000Y-195500000D03*
X196690000Y-195500000D03*
%TD*%
D15*
%TO.C,J5*%
X257000000Y-207500000D03*
D16*
X258000000Y-207500000D03*
%TD*%
D15*
%TO.C,J10*%
X254000000Y-135000000D03*
D16*
X255000000Y-135000000D03*
%TD*%
D14*
%TO.C,R12*%
X197150000Y-150500000D03*
X204770000Y-150500000D03*
%TD*%
D15*
%TO.C,J18*%
X223500000Y-204500000D03*
D16*
X223500000Y-205500000D03*
%TD*%
D15*
%TO.C,J7*%
X274500000Y-172000000D03*
D16*
X274500000Y-173000000D03*
%TD*%
D17*
%TO.C,H3*%
X274500000Y-158000000D03*
%TD*%
D18*
%TO.C,C4*%
X147500000Y-148794900D03*
D14*
X147500000Y-151294900D03*
%TD*%
D19*
%TO.C,Q15*%
X191040000Y-155050000D03*
D20*
X188500000Y-155050000D03*
X185960000Y-155050000D03*
%TD*%
D15*
%TO.C,J20*%
X213500000Y-138000000D03*
D16*
X213500000Y-139000000D03*
%TD*%
D21*
%TO.C,Q25*%
X249730000Y-195360000D03*
D22*
X251000000Y-195360000D03*
X252270000Y-195360000D03*
%TD*%
D21*
%TO.C,Q19*%
X167000000Y-208000000D03*
D22*
X165730000Y-208000000D03*
X164460000Y-208000000D03*
%TD*%
D18*
%TO.C,C8*%
X239500000Y-194794900D03*
D14*
X239500000Y-197294900D03*
%TD*%
D15*
%TO.C,J16*%
X271000000Y-139000000D03*
D16*
X271000000Y-140000000D03*
%TD*%
D19*
%TO.C,Q16*%
X185960000Y-141450000D03*
D20*
X188500000Y-141450000D03*
X191040000Y-141450000D03*
%TD*%
D14*
%TO.C,R21*%
X184690000Y-150500000D03*
X192310000Y-150500000D03*
%TD*%
D18*
%TO.C,C5*%
X158230000Y-206360000D03*
D14*
X158230000Y-208860000D03*
%TD*%
%TO.C,R19*%
X192310000Y-146000000D03*
X184690000Y-146000000D03*
%TD*%
D18*
%TO.C,C2*%
X147500000Y-141794900D03*
D14*
X147500000Y-144294900D03*
%TD*%
D21*
%TO.C,Q24*%
X252230000Y-205140000D03*
D22*
X250960000Y-205140000D03*
X249690000Y-205140000D03*
%TD*%
D19*
%TO.C,Q2*%
X185000000Y-186500000D03*
D20*
X187540000Y-186500000D03*
X190080000Y-186500000D03*
%TD*%
D23*
%TO.C,Q14*%
X166450000Y-164040000D03*
D24*
X166450000Y-161500000D03*
X166450000Y-158960000D03*
%TD*%
D19*
%TO.C,Q6*%
X203500000Y-200050000D03*
D20*
X200960000Y-200050000D03*
X198420000Y-200050000D03*
%TD*%
D21*
%TO.C,Q20*%
X166500000Y-199000000D03*
D22*
X165230000Y-199000000D03*
X163960000Y-199000000D03*
%TD*%
D15*
%TO.C,J8*%
X237500000Y-211000000D03*
D16*
X237500000Y-210000000D03*
%TD*%
D17*
%TO.C,H2*%
X158500000Y-188000000D03*
%TD*%
D14*
%TO.C,R13*%
X210460000Y-142950000D03*
X210460000Y-150570000D03*
%TD*%
D23*
%TO.C,U10*%
X282050000Y-191960000D03*
D24*
X282050000Y-194500000D03*
X282050000Y-197040000D03*
%TD*%
D15*
%TO.C,J17*%
X213500000Y-204500000D03*
D16*
X213500000Y-205500000D03*
%TD*%
D12*
%TO.C,J25*%
X267780000Y-186000000D03*
D13*
X265240000Y-186000000D03*
X262700000Y-186000000D03*
X260160000Y-186000000D03*
X257620000Y-186000000D03*
X255080000Y-186000000D03*
X252540000Y-186000000D03*
X250000000Y-186000000D03*
X247460000Y-186000000D03*
X244920000Y-186000000D03*
X242380000Y-186000000D03*
X239840000Y-186000000D03*
X237300000Y-186000000D03*
X234760000Y-186000000D03*
X232220000Y-186000000D03*
%TD*%
D15*
%TO.C,J6*%
X264500000Y-198000000D03*
D16*
X264500000Y-199000000D03*
%TD*%
D25*
%TO.C,C7*%
X239500000Y-205410200D03*
D14*
X239500000Y-202910200D03*
%TD*%
D15*
%TO.C,J13*%
X283000000Y-172000000D03*
D16*
X283000000Y-173000000D03*
%TD*%
D23*
%TO.C,Q7*%
X196550000Y-167960000D03*
D24*
X196550000Y-170500000D03*
X196550000Y-173040000D03*
%TD*%
D14*
%TO.C,R22*%
X178960000Y-150260000D03*
X178960000Y-142640000D03*
%TD*%
D15*
%TO.C,J12*%
X247500000Y-210000000D03*
D16*
X247500000Y-211000000D03*
%TD*%
D21*
%TO.C,Q1*%
X176730000Y-185860000D03*
D22*
X178000000Y-185860000D03*
X179270000Y-185860000D03*
%TD*%
D15*
%TO.C,J15*%
X269000000Y-207500000D03*
D16*
X269000000Y-208500000D03*
%TD*%
D23*
%TO.C,Q13*%
X159000000Y-141500000D03*
D24*
X159000000Y-144040000D03*
X159000000Y-146580000D03*
%TD*%
D23*
%TO.C,Q18*%
X172050000Y-144460000D03*
D24*
X172050000Y-147000000D03*
X172050000Y-149540000D03*
%TD*%
D14*
%TO.C,R8*%
X210500000Y-191190000D03*
X210500000Y-198810000D03*
%TD*%
%TO.C,R14*%
X197150000Y-146000000D03*
X204770000Y-146000000D03*
%TD*%
D19*
%TO.C,Q12*%
X198460000Y-141450000D03*
D20*
X201000000Y-141450000D03*
X203540000Y-141450000D03*
%TD*%
D23*
%TO.C,Q9*%
X209050000Y-167960000D03*
D24*
X209050000Y-170500000D03*
X209050000Y-173040000D03*
%TD*%
D21*
%TO.C,Q10*%
X211730000Y-155590000D03*
D22*
X210460000Y-155590000D03*
X209190000Y-155590000D03*
%TD*%
D14*
%TO.C,R2*%
X191310000Y-191000000D03*
X183690000Y-191000000D03*
%TD*%
D19*
%TO.C,Q11*%
X203500000Y-155000000D03*
D20*
X200960000Y-155000000D03*
X198420000Y-155000000D03*
%TD*%
D19*
%TO.C,Q5*%
X197960000Y-186450000D03*
D20*
X200500000Y-186450000D03*
X203040000Y-186450000D03*
%TD*%
D12*
%TO.C,J24*%
X267780000Y-160500000D03*
D13*
X265240000Y-160500000D03*
X262700000Y-160500000D03*
X260160000Y-160500000D03*
X257620000Y-160500000D03*
X255080000Y-160500000D03*
X252540000Y-160500000D03*
X250000000Y-160500000D03*
X247460000Y-160500000D03*
X244920000Y-160500000D03*
X242380000Y-160500000D03*
X239840000Y-160500000D03*
X237300000Y-160500000D03*
X234760000Y-160500000D03*
X232220000Y-160500000D03*
%TD*%
D21*
%TO.C,Q17*%
X180230000Y-155590000D03*
D22*
X178960000Y-155590000D03*
X177690000Y-155590000D03*
%TD*%
D12*
%TO.C,J22*%
X280000000Y-209540000D03*
D13*
X280000000Y-207000000D03*
X280000000Y-204460000D03*
%TD*%
D25*
%TO.C,C1*%
X178500000Y-176705100D03*
D14*
X178500000Y-174205100D03*
%TD*%
D26*
%TO.C,BZ1*%
X241000000Y-134700000D03*
D27*
X241000000Y-142300000D03*
%TD*%
D14*
%TO.C,R4*%
X191310000Y-195500000D03*
X183690000Y-195500000D03*
%TD*%
D17*
%TO.C,H1*%
X158500000Y-158000000D03*
%TD*%
D14*
%TO.C,R3*%
X178000000Y-191690000D03*
X178000000Y-199310000D03*
%TD*%
D25*
%TO.C,C6*%
X158230000Y-200042400D03*
D14*
X158230000Y-197542400D03*
%TD*%
D15*
%TO.C,J2*%
X258500000Y-198000000D03*
D16*
X258500000Y-199000000D03*
%TD*%
D15*
%TO.C,J19*%
X223500000Y-138000000D03*
D16*
X223500000Y-139000000D03*
%TD*%
D19*
%TO.C,U4*%
X234460000Y-151950000D03*
D20*
X237000000Y-151950000D03*
X239540000Y-151950000D03*
%TD*%
D23*
%TO.C,U6*%
X281550000Y-153960000D03*
D24*
X281550000Y-156500000D03*
X281550000Y-159040000D03*
%TD*%
D23*
%TO.C,Q4*%
X183050000Y-167960000D03*
D24*
X183050000Y-170500000D03*
X183050000Y-173040000D03*
%TD*%
D19*
%TO.C,Q3*%
X190500000Y-200000000D03*
D20*
X187960000Y-200000000D03*
X185420000Y-200000000D03*
%TD*%
D17*
%TO.C,H4*%
X274500000Y-188000000D03*
%TD*%
D10*
%TO.C,Q22*%
X166360000Y-185770000D03*
D11*
X166360000Y-184500000D03*
X166360000Y-183230000D03*
%TD*%
D25*
%TO.C,C3*%
X147500000Y-158705100D03*
D14*
X147500000Y-156205100D03*
%TD*%
D10*
%TO.C,Q23*%
X254000000Y-145500000D03*
D11*
X254000000Y-146770000D03*
X254000000Y-148040000D03*
%TD*%
D14*
%TO.C,R7*%
X204310000Y-191000000D03*
X196690000Y-191000000D03*
%TD*%
D15*
%TO.C,J11*%
X242000000Y-212000000D03*
D16*
X242000000Y-211000000D03*
%TD*%
D12*
%TO.C,J21*%
X150000000Y-171460000D03*
D13*
X150000000Y-174000000D03*
X150000000Y-176540000D03*
%TD*%
D15*
%TO.C,J14*%
X283000000Y-183000000D03*
D16*
X283000000Y-184000000D03*
%TD*%
D15*
%TO.C,J9*%
X194500000Y-134500000D03*
D16*
X195500000Y-134500000D03*
%TD*%
D21*
%TO.C,Q8*%
X209230000Y-185860000D03*
D22*
X210500000Y-185860000D03*
X211770000Y-185860000D03*
%TD*%
M02*
