M48
; DRILL file KiCad 10.0.4 date 2026-07-06T19:54:17
; FORMAT={-:-/ absolute / metric / decimal}
; #@! TF.CreationDate,2026-07-06T19:54:17-04:00
; #@! TF.GenerationSoftware,Kicad,Pcbnew,10.0.4
; #@! TF.FileFunction,Plated,1,2,PTH
FMAT,2
METRIC
; #@! TA.AperFunction,Plated,PTH,ViaDrill
T1C0.300
; #@! TA.AperFunction,Plated,PTH,ComponentDrill
T2C0.500
; #@! TA.AperFunction,Plated,PTH,ComponentDrill
T3C0.750
; #@! TA.AperFunction,Plated,PTH,ComponentDrill
T4C0.800
; #@! TA.AperFunction,Plated,PTH,ComponentDrill
T5C1.000
; #@! TA.AperFunction,Plated,PTH,ComponentDrill
T6C1.100
%
G90
G05
T1
X156.052Y-143.111
X159.19Y-213.8
X162.349Y-200.966
X163.802Y-134.714
X171.642Y-211.984
X186.825Y-144.39
X193.429Y-158.973
X193.672Y-186.167
X194.324Y-199.475
X196.359Y-132.078
X196.425Y-177.511
X200.8Y-183.172
X205.083Y-163.513
X205.823Y-189.617
X206.521Y-158.247
X207.338Y-164.792
X210.566Y-178.363
X210.706Y-179.778
X211.915Y-178.114
X212.654Y-160.452
X212.942Y-147.682
X218.181Y-139.977
X218.319Y-191.18
X219.13Y-195.5
X219.421Y-198.825
X219.745Y-169.889
X220.829Y-175.552
X222.12Y-189.423
X224.074Y-205.917
X226.228Y-196.576
X226.284Y-188.822
X226.628Y-191.18
X227.28Y-200.237
X227.947Y-193.848
X228.222Y-160.27
X228.247Y-198.825
X228.35Y-187.77
X229.041Y-155.474
X231.114Y-197.766
X232.42Y-163.406
X232.931Y-182.0
X233.344Y-192.724
X239.395Y-176.647
X239.931Y-211.0
X245.18Y-170.0
X245.55Y-167.045
X246.784Y-163.641
X249.345Y-173.0
X250.67Y-178.5
X250.673Y-182.0
X252.323Y-136.913
X259.678Y-147.084
X262.365Y-147.071
X263.25Y-151.0
X265.992Y-155.387
X270.0Y-155.677
X276.26Y-152.05
T2
X194.5Y-134.5
X195.5Y-134.5
X213.5Y-138.0
X213.5Y-139.0
X213.5Y-204.5
X213.5Y-205.5
X223.5Y-138.0
X223.5Y-139.0
X223.5Y-204.5
X223.5Y-205.5
X237.5Y-210.0
X237.5Y-211.0
X242.0Y-211.0
X242.0Y-212.0
X247.5Y-210.0
X247.5Y-211.0
X254.0Y-135.0
X255.0Y-135.0
X257.0Y-207.5
X258.0Y-207.5
X258.5Y-198.0
X258.5Y-199.0
X264.5Y-198.0
X264.5Y-199.0
X269.0Y-207.5
X269.0Y-208.5
X271.0Y-139.0
X271.0Y-140.0
X274.5Y-172.0
X274.5Y-173.0
X283.0Y-172.0
X283.0Y-173.0
X283.0Y-183.0
X283.0Y-184.0
T3
X163.96Y-199.0
X164.46Y-208.0
X165.23Y-199.0
X165.73Y-208.0
X166.36Y-183.23
X166.36Y-184.5
X166.36Y-185.77
X166.5Y-189.96
X166.5Y-191.23
X166.5Y-192.5
X166.5Y-199.0
X167.0Y-208.0
X176.73Y-185.86
X177.69Y-155.59
X178.0Y-185.86
X178.96Y-155.59
X179.27Y-185.86
X180.23Y-155.59
X209.19Y-155.59
X209.23Y-185.86
X210.46Y-155.59
X210.5Y-185.86
X211.73Y-155.59
X211.77Y-185.86
X249.69Y-205.14
X249.73Y-195.36
X250.96Y-205.14
X251.0Y-195.36
X252.23Y-205.14
X252.27Y-195.36
X254.0Y-145.5
X254.0Y-146.77
X254.0Y-148.04
T4
X147.5Y-141.795
X147.5Y-144.295
X147.5Y-148.795
X147.5Y-151.295
X147.5Y-156.205
X147.5Y-158.705
X158.23Y-197.542
X158.23Y-200.042
X158.23Y-206.36
X158.23Y-208.86
X178.0Y-191.69
X178.0Y-199.31
X178.5Y-174.205
X178.5Y-176.705
X178.96Y-142.64
X178.96Y-150.26
X183.69Y-191.0
X183.69Y-195.5
X184.69Y-146.0
X184.69Y-150.5
X191.31Y-191.0
X191.31Y-195.5
X192.31Y-146.0
X192.31Y-150.5
X196.69Y-191.0
X196.69Y-195.5
X197.15Y-146.0
X197.15Y-150.5
X204.31Y-191.0
X204.31Y-195.5
X204.77Y-146.0
X204.77Y-150.5
X210.46Y-142.95
X210.46Y-150.57
X210.5Y-191.19
X210.5Y-198.81
X239.5Y-194.795
X239.5Y-197.295
X239.5Y-202.91
X239.5Y-205.41
T5
X150.0Y-171.46
X150.0Y-174.0
X150.0Y-176.54
X232.22Y-160.5
X232.22Y-186.0
X234.76Y-160.5
X234.76Y-186.0
X237.3Y-160.5
X237.3Y-186.0
X239.84Y-160.5
X239.84Y-186.0
X241.0Y-134.7
X241.0Y-142.3
X242.38Y-160.5
X242.38Y-186.0
X244.92Y-160.5
X244.92Y-186.0
X247.46Y-160.5
X247.46Y-186.0
X250.0Y-160.5
X250.0Y-186.0
X252.54Y-160.5
X252.54Y-186.0
X255.08Y-160.5
X255.08Y-186.0
X257.62Y-160.5
X257.62Y-186.0
X260.16Y-160.5
X260.16Y-186.0
X262.7Y-160.5
X262.7Y-186.0
X265.24Y-160.5
X265.24Y-186.0
X267.78Y-160.5
X267.78Y-186.0
X280.0Y-204.46
X280.0Y-207.0
X280.0Y-209.54
X281.0Y-137.46
X281.0Y-140.0
X281.0Y-142.54
T6
X159.0Y-141.5
X159.0Y-144.04
X159.0Y-146.58
X166.45Y-158.96
X166.45Y-161.5
X166.45Y-164.04
X172.05Y-144.46
X172.05Y-147.0
X172.05Y-149.54
X183.05Y-167.96
X183.05Y-170.5
X183.05Y-173.04
X185.0Y-186.5
X185.42Y-200.0
X185.96Y-141.45
X185.96Y-155.05
X187.54Y-186.5
X187.96Y-200.0
X188.5Y-141.45
X188.5Y-155.05
X190.08Y-186.5
X190.5Y-200.0
X191.04Y-141.45
X191.04Y-155.05
X196.55Y-167.96
X196.55Y-170.5
X196.55Y-173.04
X197.96Y-186.45
X198.42Y-155.0
X198.42Y-200.05
X198.46Y-141.45
X200.5Y-186.45
X200.96Y-155.0
X200.96Y-200.05
X201.0Y-141.45
X203.04Y-186.45
X203.5Y-155.0
X203.5Y-200.05
X203.54Y-141.45
X209.05Y-167.96
X209.05Y-170.5
X209.05Y-173.04
X234.46Y-151.95
X237.0Y-151.95
X239.54Y-151.95
X281.55Y-153.96
X281.55Y-156.5
X281.55Y-159.04
X282.05Y-191.96
X282.05Y-194.5
X282.05Y-197.04
M30
